<svg width="24" height="24" viewBox="0 0 24 24" fill="none" xmlns="http://www.w3.org/2000/svg">
<g opacity="0.5" clip-path="url(#clip0_3186_17784)">
<path d="M11.9327 0H1.42424C0.816516 0 0.323456 0.49306 0.323456 1.10078V23.5591H13.032V1.10078C13.032 0.49306 12.5413 0 11.9327 0ZM11.4499 8.3968H1.90795V2.14695H11.4502V8.3968H11.4499ZM18.0827 24C15.4734 24 13.892 22.2046 13.742 19.0751C13.6795 17.8407 13.9888 16.4828 14.3153 15.0438C14.5606 13.9626 14.8168 12.847 14.9372 11.6995C15.0576 10.5486 14.8766 10.1572 14.7577 10.026C14.5374 9.78063 13.8889 9.78063 13.2622 9.78063H12.9538V8.25498H13.2622C14.178 8.25498 15.2172 8.25498 15.892 9.00513C16.42 9.58962 16.5984 10.4979 16.4559 11.8597C16.3262 13.0941 16.0621 14.2598 15.8063 15.3847C15.5045 16.7176 15.2172 17.9786 15.2655 19.0003C15.3763 21.3066 16.325 22.474 18.0827 22.474C20.0139 22.474 20.9936 21.2535 20.9936 18.847C20.9936 16.8564 20.3748 15.3066 19.9638 14.2815L19.8029 13.869C19.3766 12.752 19.3201 11.7505 19.2764 10.2323C19.2326 8.7589 19.2498 7.18316 19.6578 5.62583C20.0688 4.05975 20.914 3.29632 22.3126 2.03229L22.6499 1.72511L23.6765 2.85486L23.3343 3.16355C22.0265 4.34701 21.4297 4.88684 21.1343 6.01418C20.7749 7.38292 20.7637 8.82891 20.8011 10.1877C20.8437 11.6687 20.9013 12.4626 21.2293 13.325L21.3826 13.7124C21.8108 14.7779 22.5202 16.5594 22.5202 18.8437C22.5187 22.0733 20.8594 24 18.0827 24ZM20.0468 10.4916L20.0078 8.965C20.0078 8.965 21.1907 8.93452 21.8612 8.92667C21.8766 8.65631 21.8766 8.23386 21.8766 7.79089V7.56337C21.8766 5.73778 21.5908 5.49608 21.2628 5.21424C21.1424 5.11346 21.0235 5.00785 20.9079 4.88141L22.0299 3.85003C22.1017 3.92818 22.1798 3.99065 22.2531 4.05311C22.9049 4.60923 23.4019 5.21967 23.4019 7.56156V7.78877C23.4019 8.64424 23.4034 9.11678 23.3268 9.47616C23.1955 10.0941 22.7707 10.4496 22.1614 10.4496C21.6656 10.4499 20.0486 10.4916 20.0468 10.4916Z" fill="#7286AF"/>
</g>
<defs>
<clipPath id="clip0_3186_17784">
<rect width="24" height="24" fill="white"/>
</clipPath>
</defs>
</svg>
