<svg width="24" height="24" viewBox="0 0 24 24" fill="none" xmlns="http://www.w3.org/2000/svg">
<g opacity="0.5">
<path d="M0.263519 2.48652C0.439281 2.3108 0.648077 2.22266 0.888491 2.22266H15.111C15.3517 2.22266 15.5601 2.3108 15.7359 2.48652C15.9118 2.66247 15.9998 2.87093 15.9998 3.11163V5.77837H18.2221C18.4722 5.77837 18.7431 5.83855 19.0348 5.9589C19.3265 6.07945 19.5602 6.22733 19.7361 6.40329L22.4862 9.15336C22.6065 9.27371 22.7106 9.4125 22.7987 9.57002C22.8866 9.72715 22.9515 9.86872 22.9932 9.9935C23.0347 10.1186 23.065 10.2897 23.0833 10.5075C23.1017 10.7252 23.1135 10.8849 23.1181 10.9868C23.1226 11.0886 23.1226 11.2646 23.1181 11.5146C23.1135 11.7648 23.1111 11.9267 23.1111 12.0009V16.4453C23.3518 16.4453 23.5601 16.5332 23.7361 16.7093C23.912 16.8849 24 17.0934 24 17.3342C24 17.4729 23.9816 17.5957 23.9445 17.7021C23.9074 17.8086 23.845 17.8942 23.7569 17.9591C23.669 18.0241 23.5925 18.0771 23.5278 18.1189C23.4628 18.1605 23.3541 18.1882 23.2013 18.2022C23.0486 18.2161 22.9445 18.2255 22.8889 18.2301C22.8332 18.2345 22.7153 18.2345 22.5347 18.2301C22.354 18.2255 22.2499 18.2231 22.2221 18.2231H21.3333C21.3333 19.2043 20.986 20.0424 20.2917 20.7369C19.5971 21.4313 18.7592 21.7786 17.7777 21.7786C16.7962 21.7786 15.9582 21.4313 15.2639 20.7369C14.5693 20.0424 14.2223 19.2043 14.2223 18.2231H8.88875C8.88875 19.2043 8.54146 20.0424 7.84712 20.7369C7.15288 21.4313 6.31483 21.7786 5.33328 21.7786C4.35153 21.7786 3.51402 21.4313 2.81944 20.7369C2.1249 20.0424 1.77781 19.2043 1.77781 18.2231C1.75018 18.2231 1.64593 18.2255 1.46549 18.2301C1.28487 18.2345 1.1668 18.2345 1.11124 18.2301C1.05559 18.2255 0.951244 18.2161 0.79859 18.2022C0.645885 18.1882 0.537209 18.1606 0.472265 18.1189C0.407322 18.0773 0.331141 18.0241 0.243185 17.9591C0.155134 17.8942 0.0925255 17.8086 0.055603 17.7021C0.0181446 17.5957 0 17.4728 0 17.3342V3.11178C-0.00019455 2.87102 0.0877094 2.66282 0.263519 2.48652ZM16.528 19.4731C16.8796 19.8248 17.2964 20.0011 17.7779 20.0011C18.2594 20.0011 18.6761 19.825 19.028 19.4731C19.3798 19.1215 19.5557 18.7046 19.5557 18.2232C19.5557 17.7418 19.3796 17.3247 19.028 16.9729C18.6762 16.6213 18.2594 16.4452 17.7779 16.4452C17.2964 16.4452 16.8797 16.6212 16.528 16.9729C16.1759 17.3247 16 17.7418 16 18.2232C16 18.7046 16.1759 19.1215 16.528 19.4731ZM16 11.1118H21.3335V10.6953C21.3335 10.5749 21.2919 10.473 21.2085 10.3896L18.5002 7.68135C18.4169 7.59797 18.3149 7.55642 18.1945 7.55642H16V11.1118ZM4.08339 19.4731C4.43511 19.8248 4.85187 20.0011 5.33328 20.0011C5.81488 20.0011 6.23179 19.825 6.58351 19.4731C6.93528 19.1215 7.11128 18.7046 7.11128 18.2232C7.11128 17.7418 6.93533 17.3247 6.58351 16.9729C6.23179 16.6213 5.81488 16.4452 5.33328 16.4452C4.85187 16.4452 4.43511 16.6212 4.08339 16.9729C3.73162 17.3249 3.55547 17.7418 3.55547 18.2232C3.55547 18.7046 3.73128 19.1215 4.08339 19.4731Z" fill="#7286AF"/>
</g>
</svg>
