<svg width="24" height="24" viewBox="0 0 24 24" fill="none" xmlns="http://www.w3.org/2000/svg">
<g opacity="0.5" clip-path="url(#clip0_3186_17819)">
<path d="M23.479 10.9242C23.9514 10.4639 24.1182 9.78817 23.9144 9.16005C23.7102 8.53194 23.1782 8.08356 22.5246 7.98841L16.7134 7.14403C16.466 7.10799 16.2521 6.95276 16.1416 6.72834L13.5436 1.46314C13.2519 0.871547 12.6598 0.503906 12 0.503906C11.3406 0.503906 10.7485 0.871547 10.4568 1.46314L7.85834 6.72882C7.74781 6.95325 7.53347 7.10847 7.28598 7.14452L1.47484 7.98889C0.82174 8.08356 0.289261 8.53242 0.0850157 9.16053C-0.118749 9.78865 0.0480113 10.4643 0.520418 10.9247L4.72498 15.0231C4.90424 15.198 4.98642 15.4498 4.94413 15.6959L3.95222 21.483C3.86427 21.9924 3.99787 22.4879 4.32755 22.8786C4.83984 23.4875 5.73419 23.673 6.44929 23.2972L11.6462 20.5646C11.8635 20.4507 12.1369 20.4517 12.3537 20.5646L17.5511 23.2972C17.8039 23.4303 18.0735 23.4976 18.3517 23.4976C18.8597 23.4976 19.3412 23.2717 19.6724 22.8786C20.0025 22.4879 20.1356 21.9915 20.0477 21.483L19.0553 15.6959C19.013 15.4494 19.0952 15.198 19.2744 15.0231L23.479 10.9242Z" fill="#7286AF"/>
</g>
<defs>
<clipPath id="clip0_3186_17819">
<rect width="24" height="24" fill="white"/>
</clipPath>
</defs>
</svg>
