<svg width="24" height="24" viewBox="0 0 24 24" fill="none" xmlns="http://www.w3.org/2000/svg">
<path d="M2.75426 6.1121H21.2448C21.6614 6.1121 21.9995 5.70637 21.9995 5.20644C21.9995 4.70652 21.6614 4.30078 21.2448 4.30078H2.75426C2.33766 4.30078 1.99954 4.70652 1.99954 5.20644C1.99954 5.70637 2.33766 6.1121 2.75426 6.1121Z" fill="#0C1018"/>
<path d="M2.75426 12.9051H21.2448C21.6614 12.9051 21.9995 12.4993 21.9995 11.9994C21.9995 11.4995 21.6614 11.0938 21.2448 11.0938H2.75426C2.33766 11.0938 1.99954 11.4995 1.99954 11.9994C1.99954 12.4993 2.33766 12.9051 2.75426 12.9051Z" fill="#0C1018"/>
<path d="M2.75426 19.698H21.2448C21.6614 19.698 21.9995 19.2923 21.9995 18.7924C21.9995 18.2925 21.6614 17.8867 21.2448 17.8867H2.75426C2.33766 17.8867 1.99954 18.2925 1.99954 18.7924C1.99954 19.2923 2.33766 19.698 2.75426 19.698Z" fill="#0C1018"/>
</svg>
