<svg width="24" height="24" viewBox="0 0 24 24" fill="none" xmlns="http://www.w3.org/2000/svg">
<g opacity="0.5">
<path d="M19.0266 11.1684C18.9614 11.0705 18.6215 10.5788 18.0077 9.693C17.3934 8.80699 16.8445 7.98631 16.3608 7.23091C15.8771 6.4755 15.3365 5.50811 14.7385 4.3288C14.1409 3.14949 13.6895 2.05418 13.3854 1.04345C13.2983 0.717488 13.1165 0.461822 12.839 0.277196C12.5623 0.0924557 12.2824 0 11.9998 0C11.7173 0 11.4401 0.0924557 11.1684 0.277139C10.8965 0.461822 10.7118 0.717431 10.614 1.0434C10.3096 2.05413 9.8585 3.14943 9.26076 4.32874C8.66308 5.50805 8.12228 6.47539 7.63859 7.23085C7.15489 7.98631 6.60593 8.80699 5.99186 9.69295C5.37773 10.5788 5.03806 11.0705 4.97291 11.1683C4.09249 12.5817 3.65231 14.0761 3.65231 15.652C3.65231 17.9567 4.46757 19.9239 6.09791 21.5542C7.72825 23.1845 9.69546 23.9999 11.9998 23.9999C14.304 23.9999 16.2715 23.1848 17.902 21.5542C19.5324 19.9235 20.3477 17.9563 20.3477 15.652C20.3477 14.0433 19.9073 12.5489 19.0266 11.1684ZM11.3884 19.2145C10.9806 19.6222 10.489 19.8262 9.91275 19.8262C9.33683 19.8262 8.84491 19.6222 8.43728 19.2145C8.02971 18.8072 7.82578 18.3151 7.82578 17.7391C7.82578 17.3478 7.93463 16.973 8.15192 16.6142C8.16294 16.603 8.247 16.4813 8.40473 16.2475C8.56235 16.0138 8.70094 15.807 8.82052 15.6277C8.94022 15.4483 9.07613 15.2093 9.22821 14.9103C9.38034 14.6113 9.49461 14.3369 9.57062 14.0874C9.61408 13.9134 9.72835 13.826 9.91303 13.826C10.0978 13.826 10.212 13.9134 10.2555 14.0874C10.3316 14.3369 10.4458 14.6113 10.5979 14.9103C10.75 15.2093 10.8859 15.4483 11.0055 15.6277C11.1249 15.8071 11.2634 16.0139 11.4212 16.2475C11.5787 16.4813 11.6629 16.603 11.674 16.6142C11.8913 16.973 11.9999 17.3478 11.9999 17.7391C11.9998 18.3151 11.7959 18.8072 11.3884 19.2145Z" fill="#7286AF"/>
</g>
</svg>
