<svg width="24" height="24" viewBox="0 0 24 24" fill="none" xmlns="http://www.w3.org/2000/svg">
<g opacity="0.5">
<path d="M19.8761 5.97336C19.7907 5.65318 19.6172 5.31202 19.4889 5.01333C17.9532 1.32266 14.5977 0 11.8883 0C8.26129 0 4.26657 2.43206 3.73325 7.44511V8.46931C3.73325 8.51205 3.74798 8.896 3.7689 9.08807C4.06787 11.4772 5.95305 14.0162 7.36097 16.4053C8.8757 18.965 10.4474 21.483 12.0046 23.9999C12.9648 22.3574 13.9216 20.6933 14.8599 19.0934C15.1156 18.6238 15.4125 18.1545 15.6685 17.7064C15.8391 17.4079 16.1651 17.1095 16.314 16.8319C17.8287 14.0587 20.2667 11.2641 20.2667 8.51199V7.38139C20.2668 7.08303 19.8969 6.03769 19.8761 5.97336ZM11.9547 11.1148C10.8885 11.1148 9.72156 10.5817 9.14554 9.10944C9.05972 8.87508 9.06664 8.40542 9.06664 8.3624V7.70107C9.06664 5.8242 10.6603 4.9707 12.0467 4.9707C13.7534 4.9707 15.0735 6.33622 15.0735 8.043C15.0735 9.74973 13.6615 11.1148 11.9547 11.1148Z" fill="#7286AF"/>
</g>
</svg>
