<svg width="24" height="24" viewBox="0 0 24 24" fill="none" xmlns="http://www.w3.org/2000/svg">
<g opacity="0.5">
<path d="M24 5.47579V12.7408C24 12.7408 22.4451 13.0472 22.1248 13.0875C21.8055 13.1277 20.802 13.4517 20.0748 12.7527C18.9533 11.6778 14.9686 7.71511 14.9686 7.71511C14.9686 7.71511 14.2816 7.04095 13.1784 7.62359C12.1658 8.15732 10.6647 8.93951 10.0377 9.2441C8.85244 9.87496 7.87006 8.87404 7.87006 8.1116C7.87006 7.5202 8.2391 7.11882 8.76663 6.82362C10.1963 5.95693 13.2096 4.26553 14.4647 3.59868C15.2276 3.19294 15.7772 3.15817 16.8246 4.0405C18.1145 5.12534 19.2624 6.11421 19.2624 6.11421C19.2624 6.11421 19.6369 6.42669 20.234 6.30084C21.7002 5.99083 24 5.47579 24 5.47579ZM8.13998 17.7857C8.33295 17.2899 8.26845 16.7354 7.89849 16.355C7.56606 16.0147 7.0807 15.9251 6.61791 16.0311C6.74735 15.5721 6.67588 15.0835 6.34166 14.7388C6.00821 14.3994 5.52377 14.3079 5.06103 14.4149C5.1895 13.9566 5.11822 13.4681 4.78381 13.1243C4.26015 12.5872 3.35438 12.6102 2.75934 13.1774C2.16746 13.7454 1.7883 14.7744 2.31656 15.3801C2.84394 15.9827 3.44992 15.6161 3.91188 15.5108C3.78337 15.9691 3.3983 16.3954 3.87252 16.9954C4.3463 17.5956 5.00583 17.2314 5.46828 17.1271C5.33933 17.5837 4.97106 18.0529 5.42707 18.6091C5.8872 19.167 6.64082 18.8698 7.13857 18.7152C6.94647 19.209 6.5353 19.7414 7.06356 20.338C7.59099 20.9389 8.80988 20.6609 9.40525 20.0928C9.99902 19.5248 10.056 18.6247 9.53376 18.0859C9.1732 17.7162 8.63569 17.6302 8.13998 17.7857ZM19.0036 14.006C14.6997 9.70204 16.7241 11.7273 14.4079 9.40612C14.4079 9.40612 13.7118 8.71313 12.7943 9.11568C12.1503 9.39789 11.3211 9.78252 10.6972 10.0762C10.0117 10.4357 9.51827 10.5469 9.28661 10.5454C7.96124 10.5367 6.88594 9.47145 6.88594 8.14739C6.88594 7.28844 7.34195 6.54063 8.02206 6.11615C8.97844 5.45434 11.1798 4.28345 11.1798 4.28345C11.1798 4.28345 10.5092 3.43365 9.04008 3.43365C7.57143 3.43365 4.503 5.44383 4.503 5.44383C4.503 5.44383 3.63253 6.00138 2.39166 5.49918L0 4.66633V12.9796C0 12.9796 0.682924 13.1773 1.29655 13.4279C1.43514 13.0327 1.65876 12.6677 1.96897 12.3663C2.98699 11.3966 4.67437 11.3866 5.60057 12.3403C5.87959 12.6302 6.07431 12.976 6.17367 13.3583C6.54688 13.4735 6.88492 13.6776 7.15658 13.9575C7.43642 14.2455 7.63041 14.5933 7.7306 14.9736C8.10337 15.0889 8.44093 15.2938 8.71351 15.5738C9.02047 15.8904 9.22497 16.2727 9.32046 16.687C9.71012 16.8005 10.0623 17.0117 10.3459 17.3017C10.9025 17.8734 11.1001 18.6491 10.9804 19.3973C10.9814 19.3973 10.9832 19.3974 10.9841 19.399C10.9932 19.411 11.3289 19.7853 11.5383 19.9964C11.9487 20.4071 12.6187 20.4071 13.0303 19.9964C13.4392 19.5858 13.441 18.9171 13.0303 18.5044C13.0156 18.4897 11.5499 16.9566 11.6679 16.8378C11.7849 16.7197 13.6523 18.6628 13.6871 18.6983C14.0969 19.1082 14.7665 19.1082 15.1782 18.6983C15.5888 18.2877 15.588 17.619 15.1782 17.2073C15.158 17.1881 15.074 17.1076 15.0428 17.0755C15.0428 17.0755 13.1913 15.4262 13.3322 15.2853C13.4749 15.1435 15.7747 17.2896 15.7784 17.2896C16.1918 17.6619 16.8286 17.6592 17.2263 17.2613C17.6132 16.8744 17.6215 16.2623 17.2785 15.8499C17.2712 15.828 15.5258 14.0039 15.662 13.8667C15.8002 13.7277 17.5273 15.506 17.5309 15.5097C17.9398 15.9195 18.6103 15.9195 19.022 15.5097C19.4318 15.0998 19.4318 14.4303 19.022 14.0168C19.0164 14.0133 19.0091 14.0096 19.0036 14.006Z" fill="#7286AF"/>
</g>
</svg>
