<svg width="24" height="24" viewBox="0 0 24 24" fill="none" xmlns="http://www.w3.org/2000/svg">
<g opacity="0.5" clip-path="url(#clip0_3186_17772)">
<path d="M18.0851 0.0820312H1.42409C0.637593 0.0820312 0 0.719624 0 1.50612C0 2.29267 0.637593 2.93021 1.42409 2.93021L4.44276 2.93357C4.88314 2.93357 5.24025 3.29062 5.24025 3.73106C5.24025 4.1715 4.88314 4.52855 4.44276 4.52855H1.9154V10.5768H1.42409C0.637593 10.5768 0 11.2143 0 12.0009C0 12.7874 0.637593 13.425 1.42409 13.425L4.44276 13.4291C4.88314 13.4291 5.24025 13.7862 5.24025 14.2266C5.24025 14.667 4.88314 15.0241 4.44276 15.0241H1.9154V21.0715H1.42409C0.637593 21.0715 0 21.709 0 22.4955C0 23.282 0.637593 23.9196 1.42409 23.9196H13.9685C12.4124 22.6475 11.4171 20.7137 11.4171 18.5516C11.4171 16.9559 12.4095 14.8417 14.4509 12.0881C15.8593 10.1884 17.2484 8.69367 17.3069 8.63101L17.5939 8.32318V2.93021H18.0852C18.8717 2.93021 19.5093 2.29267 19.5093 1.50612C19.5092 0.719624 18.8716 0.0820312 18.0851 0.0820312Z" fill="#7286AF"/>
<path d="M21.4328 13.2508C20.1858 11.5688 18.921 10.2079 18.9084 10.1943C18.8439 10.1252 18.7536 10.0859 18.6591 10.0859C18.5645 10.0859 18.4742 10.1252 18.4097 10.1943C18.397 10.2079 17.1322 11.5688 15.8853 13.2508C14.182 15.5483 13.3184 17.3318 13.3184 18.5517C13.3184 21.4967 15.7143 23.8928 18.6592 23.8928C21.6041 23.8928 24.0001 21.4968 24.0001 18.5517C23.9999 17.3317 23.1362 15.5483 21.4328 13.2508ZM19.1924 22.1643C18.9125 22.2305 18.624 22.264 18.3347 22.264C16.2795 22.264 14.6073 20.5919 14.6073 18.5366C14.6073 18.2531 14.6945 17.7399 15.1101 16.9033C15.1518 16.8191 15.2481 16.7774 15.338 16.8042C15.4279 16.831 15.4857 16.9187 15.4746 17.0119C15.465 17.0924 15.4602 17.1682 15.4602 17.2372C15.4602 19.4402 17.0271 21.3538 19.1858 21.7873C19.2748 21.805 19.3392 21.8825 19.3408 21.9732C19.3425 22.064 19.2807 22.1434 19.1924 22.1643Z" fill="#7286AF"/>
</g>
<defs>
<clipPath id="clip0_3186_17772">
<rect width="24" height="24" fill="white"/>
</clipPath>
</defs>
</svg>
