<svg width="24" height="24" viewBox="0 0 24 24" fill="none" xmlns="http://www.w3.org/2000/svg">
<path d="M5.28186 18.7174C5.40927 18.8449 5.55696 18.929 5.72492 18.9696C5.89867 19.0101 6.06663 19.0101 6.2288 18.9696C6.39676 18.929 6.54155 18.8478 6.66318 18.7261L12.006 13.3783L17.3402 18.7261C17.4618 18.8478 17.6066 18.929 17.7746 18.9696C17.9425 19.0101 18.1105 19.0101 18.2784 18.9696C18.4464 18.929 18.5941 18.8449 18.7215 18.7174C18.8431 18.5957 18.9242 18.4507 18.9648 18.2826C19.0053 18.1145 19.0053 17.9493 18.9648 17.787C18.9242 17.6188 18.8431 17.471 18.7215 17.3435L13.3873 11.9957L18.7215 6.65652C18.8431 6.52899 18.9242 6.38406 18.9648 6.22174C19.0111 6.05362 19.0111 5.88551 18.9648 5.71739C18.9242 5.54928 18.8431 5.40435 18.7215 5.28261C18.5883 5.15507 18.4377 5.07101 18.2698 5.03043C18.1076 4.98986 17.9425 4.98986 17.7746 5.03043C17.6066 5.06522 17.4618 5.14638 17.3402 5.27391L12.006 10.6217L6.66318 5.27391C6.54155 5.15217 6.39676 5.07101 6.2288 5.03043C6.06084 4.98986 5.89288 4.98986 5.72492 5.03043C5.55696 5.07101 5.40927 5.15507 5.28186 5.28261C5.16023 5.40435 5.07915 5.54928 5.03861 5.71739C4.99806 5.88551 4.99806 6.05362 5.03861 6.22174C5.07915 6.38986 5.16023 6.53188 5.28186 6.64783L10.616 11.9957L5.28186 17.3522C5.16023 17.4681 5.07625 17.6101 5.02992 17.7783C4.98938 17.9464 4.98938 18.1145 5.02992 18.2826C5.07046 18.4507 5.15444 18.5957 5.28186 18.7174Z" fill="black"/>
</svg>
