<svg width="24" height="24" viewBox="0 0 24 24" fill="none" xmlns="http://www.w3.org/2000/svg">
<g opacity="0.5" clip-path="url(#clip0_3090_8803)">
<path d="M12.0007 0C5.37351 0 0.000976562 5.37269 0.000976562 11.9999C0.000976562 18.6269 5.37351 24 12.0007 24C18.6279 24 24.0008 18.6269 24.0008 11.9999C24.0008 5.37253 18.6279 0 12.0007 0ZM12.0373 17.6612V17.6611H11.964H6.83816C6.83816 13.9125 10.1304 13.9134 10.8609 12.9332L10.9445 12.4863C9.91811 11.9661 9.19355 10.712 9.19355 9.24529C9.19355 7.31295 10.4505 5.74622 12.0007 5.74622C13.5509 5.74622 14.8078 7.31295 14.8078 9.24529C14.8078 10.6995 14.0962 11.9458 13.0834 12.4742L13.1786 12.9821C13.9802 13.9148 17.1628 13.9756 17.1628 17.6612H12.0373Z" fill="white"/>
</g>
<defs>
<clipPath id="clip0_3090_8803">
<rect width="24" height="24" fill="white"/>
</clipPath>
</defs>
</svg>
