<svg width="24" height="24" viewBox="0 0 24 24" fill="none" xmlns="http://www.w3.org/2000/svg">
<path d="M21.9286 20.243L20.2116 17.381C19.4186 16.06 18.9996 14.547 18.9996 13.007V10.5C18.9996 7.335 16.8876 4.65802 13.9996 3.795V2.00002C13.9996 0.897 13.1026 0 11.9996 0C10.8966 0 9.99956 0.897 9.99956 2.00002V3.795C7.11159 4.65802 4.99959 7.335 4.99959 10.5V13.007C4.99959 14.547 4.58058 16.059 3.78858 17.38L2.07159 20.242C1.97859 20.397 1.97658 20.589 2.06559 20.746C2.15461 20.903 2.31961 21 2.49961 21H21.4996C21.6796 21 21.8456 20.9031 21.9346 20.7471C22.0236 20.591 22.0206 20.397 21.9286 20.243Z" fill="#FFCA7F"/>
<path d="M8.85077 22C9.41477 23.178 10.6088 24 11.9997 24C13.3907 24 14.5848 23.178 15.1488 22H8.85077Z" fill="#FFCA7F"/>
</svg>
