<svg width="24" height="24" viewBox="0 0 24 24" fill="none" xmlns="http://www.w3.org/2000/svg">
<g opacity="0.5">
<path d="M19.0267 11.1684C18.9614 11.0705 18.6215 10.5788 18.0077 9.693C17.3935 8.80699 16.8445 7.98631 16.3608 7.23091C15.8771 6.4755 15.3365 5.50811 14.7386 4.3288C14.141 3.14949 13.6895 2.05418 13.3854 1.04345C13.2983 0.717488 13.1165 0.461822 12.839 0.277196C12.5623 0.0924557 12.2824 0 11.9999 0C11.7173 0 11.4402 0.0924557 11.1684 0.277139C10.8966 0.461822 10.7119 0.717431 10.614 1.0434C10.3097 2.05413 9.85853 3.14943 9.26079 4.32874C8.66311 5.50805 8.12231 6.47539 7.63862 7.23085C7.15492 7.98631 6.60596 8.80699 5.99189 9.69295C5.37777 10.5788 5.03809 11.0705 4.97294 11.1683C4.09252 12.5817 3.65234 14.0761 3.65234 15.652C3.65234 17.9567 4.4676 19.9239 6.09794 21.5542C7.72828 23.1845 9.69549 23.9999 11.9999 23.9999C14.304 23.9999 16.2715 23.1848 17.902 21.5542C19.5325 19.9235 20.3478 17.9563 20.3478 15.652C20.3478 14.0433 19.9073 12.5489 19.0267 11.1684ZM11.3885 19.2145C10.9807 19.6222 10.489 19.8262 9.91278 19.8262C9.33686 19.8262 8.84494 19.6222 8.43731 19.2145C8.02974 18.8072 7.82581 18.3151 7.82581 17.7391C7.82581 17.3478 7.93466 16.973 8.15195 16.6142C8.16297 16.603 8.24703 16.4813 8.40476 16.2475C8.56238 16.0138 8.70097 15.807 8.82056 15.6277C8.94025 15.4483 9.07616 15.2093 9.22824 14.9103C9.38037 14.6113 9.49464 14.3369 9.57065 14.0874C9.61411 13.9134 9.72838 13.826 9.91306 13.826C10.0979 13.826 10.2121 13.9134 10.2555 14.0874C10.3316 14.3369 10.4458 14.6113 10.5979 14.9103C10.75 15.2093 10.8859 15.4483 11.0055 15.6277C11.125 15.8071 11.2635 16.0139 11.4212 16.2475C11.5787 16.4813 11.6629 16.603 11.674 16.6142C11.8913 16.973 12 17.3478 12 17.7391C11.9999 18.3151 11.7959 18.8072 11.3885 19.2145Z" fill="white"/>
</g>
</svg>
