<svg width="24" height="24" viewBox="0 0 24 24" fill="none" xmlns="http://www.w3.org/2000/svg">
<g opacity="0.5" clip-path="url(#clip0_3090_8813)">
<path d="M23.479 10.9235C23.9514 10.4631 24.1182 9.78743 23.9144 9.15932C23.7102 8.53121 23.1782 8.08283 22.5246 7.98768L16.7134 7.1433C16.466 7.10726 16.2521 6.95203 16.1416 6.7276L13.5436 1.4624C13.2519 0.870815 12.6598 0.503174 12 0.503174C11.3406 0.503174 10.7485 0.870815 10.4568 1.4624L7.85834 6.72808C7.74781 6.95251 7.53347 7.10774 7.28598 7.14378L1.47484 7.98816C0.82174 8.08283 0.289261 8.53169 0.0850157 9.1598C-0.118749 9.78792 0.0480113 10.4636 0.520418 10.924L4.72498 15.0224C4.90424 15.1973 4.98642 15.4491 4.94413 15.6952L3.95222 21.4823C3.86427 21.9917 3.99787 22.4872 4.32755 22.8779C4.83984 23.4868 5.73419 23.6723 6.44929 23.2964L11.6462 20.5639C11.8635 20.45 12.1369 20.451 12.3537 20.5639L17.5511 23.2964C17.8039 23.4296 18.0735 23.4968 18.3517 23.4968C18.8597 23.4968 19.3412 23.271 19.6724 22.8779C20.0025 22.4872 20.1356 21.9907 20.0477 21.4823L19.0553 15.6952C19.013 15.4486 19.0952 15.1973 19.2744 15.0224L23.479 10.9235Z" fill="white"/>
</g>
<defs>
<clipPath id="clip0_3090_8813">
<rect width="24" height="24" fill="white"/>
</clipPath>
</defs>
</svg>
