<svg width="12" height="17" viewBox="0 0 12 17" fill="none" xmlns="http://www.w3.org/2000/svg">
<path d="M1.75 16.8594C1.96354 16.8594 2.15625 16.7995 2.32812 16.6797C2.50521 16.5599 2.75 16.349 3.0625 16.0469L5.89844 13.2266C5.9401 13.1849 5.98438 13.1849 6.03125 13.2266L8.86719 16.0469C9.17969 16.349 9.42188 16.5599 9.59375 16.6797C9.77083 16.7995 9.96354 16.8594 10.1719 16.8594C10.4844 16.8594 10.7318 16.7578 10.9141 16.5547C11.0964 16.3568 11.1875 16.0833 11.1875 15.7344V2.8125C11.1875 2.06771 10.9948 1.5 10.6094 1.10938C10.224 0.71875 9.66146 0.523438 8.92188 0.523438H3.00781C2.26823 0.523438 1.70312 0.71875 1.3125 1.10938C0.927083 1.5 0.734375 2.06771 0.734375 2.8125V15.7344C0.734375 16.0833 0.825521 16.3568 1.00781 16.5547C1.19531 16.7578 1.44271 16.8594 1.75 16.8594ZM2.5 14.2891C2.44792 14.3307 2.39844 14.3464 2.35156 14.3359C2.30469 14.3255 2.28125 14.2839 2.28125 14.2109V2.92969C2.28125 2.63802 2.35156 2.42448 2.49219 2.28906C2.63802 2.14844 2.85417 2.07812 3.14062 2.07812H8.78125C9.07292 2.07812 9.28906 2.14844 9.42969 2.28906C9.57031 2.42448 9.64062 2.63802 9.64062 2.92969V14.2109C9.64062 14.2839 9.61719 14.3255 9.57031 14.3359C9.52865 14.3464 9.48177 14.3307 9.42969 14.2891L6.48438 11.4375C6.3125 11.2708 6.13802 11.1875 5.96094 11.1875C5.78385 11.1875 5.60938 11.2708 5.4375 11.4375L2.5 14.2891Z" fill="#FF9500"/>
</svg>
