<svg width="24" height="24" viewBox="0 0 24 24" fill="none" xmlns="http://www.w3.org/2000/svg">
<g opacity="0.5" clip-path="url(#clip0_3090_8783)">
<path d="M18.0851 0.0811768H1.42409C0.637593 0.0811768 0 0.71877 0 1.50527C0 2.29182 0.637593 2.92936 1.42409 2.92936L4.44276 2.93272C4.88314 2.93272 5.24025 3.28976 5.24025 3.73021C5.24025 4.17065 4.88314 4.5277 4.44276 4.5277H1.9154V10.576H1.42409C0.637593 10.576 0 11.2135 0 12.0001C0 12.7866 0.637593 13.4242 1.42409 13.4242L4.44276 13.4283C4.88314 13.4283 5.24025 13.7853 5.24025 14.2257C5.24025 14.6662 4.88314 15.0232 4.44276 15.0232H1.9154V21.0706H1.42409C0.637593 21.0706 0 21.7082 0 22.4947C0 23.2812 0.637593 23.9188 1.42409 23.9188H13.9685C12.4124 22.6467 11.4171 20.7128 11.4171 18.5508C11.4171 16.955 12.4095 14.8409 14.4509 12.0873C15.8593 10.1875 17.2484 8.69281 17.3069 8.63015L17.5939 8.32232V2.92936H18.0852C18.8717 2.92936 19.5093 2.29182 19.5093 1.50527C19.5092 0.71877 18.8716 0.0811768 18.0851 0.0811768Z" fill="white"/>
<path d="M21.4329 13.2489C20.1858 11.5669 18.921 10.2061 18.9084 10.1925C18.8439 10.1234 18.7536 10.0841 18.6591 10.0841C18.5645 10.0841 18.4742 10.1234 18.4098 10.1925C18.3971 10.2061 17.1322 11.5669 15.8853 13.2489C14.182 15.5465 13.3184 17.33 13.3184 18.5499C13.3184 21.4949 15.7143 23.8909 18.6592 23.8909C21.6041 23.8909 24.0001 21.4949 24.0001 18.5499C23.9999 17.3299 23.1362 15.5465 21.4329 13.2489ZM19.1924 22.1625C18.9125 22.2287 18.624 22.2622 18.3347 22.2622C16.2795 22.2622 14.6073 20.5901 14.6073 18.5348C14.6073 18.2513 14.6945 17.7381 15.1101 16.9014C15.1518 16.8173 15.2481 16.7756 15.3381 16.8024C15.428 16.8292 15.4857 16.9168 15.4746 17.0101C15.465 17.0906 15.4603 17.1664 15.4603 17.2354C15.4603 19.4384 17.0271 21.352 19.1858 21.7854C19.2748 21.8032 19.3392 21.8807 19.3408 21.9714C19.3425 22.0622 19.2807 22.1416 19.1924 22.1625Z" fill="white"/>
</g>
<defs>
<clipPath id="clip0_3090_8783">
<rect width="24" height="24" fill="white"/>
</clipPath>
</defs>
</svg>
