<svg width="16" height="16" viewBox="0 0 16 16" fill="none" xmlns="http://www.w3.org/2000/svg">
<g clip-path="url(#clip0_3090_8666)">
<path d="M2.93331 4.53333C2.04965 4.53333 1.33331 5.24966 1.33331 6.13333C1.33428 7.01659 2.05005 7.73236 2.93331 7.73333C3.81698 7.73333 4.53331 7.01699 4.53331 6.13333C4.53331 5.24966 3.81698 4.53333 2.93331 4.53333ZM2.93331 7.19999C2.34421 7.19999 1.86665 6.72242 1.86665 6.13333C1.86728 5.54449 2.34448 5.06729 2.93331 5.06666C3.52241 5.06666 3.99998 5.54423 3.99998 6.13333C3.99998 6.72242 3.52241 7.19999 2.93331 7.19999Z" fill="#FF9500"/>
<path d="M7.19998 1.59998C6.02178 1.59998 5.06665 2.55511 5.06665 3.73331C5.06798 4.91094 6.02235 5.86531 7.19998 5.86664C8.37818 5.86664 9.33332 4.91151 9.33332 3.73331C9.33332 2.55511 8.37818 1.59998 7.19998 1.59998ZM7.19998 5.33331C6.31632 5.33331 5.59998 4.61698 5.59998 3.73331C5.60095 2.85004 6.31672 2.13428 7.19998 2.13331C8.08365 2.13331 8.79998 2.84964 8.79998 3.73331C8.79998 4.61698 8.08365 5.33331 7.19998 5.33331Z" fill="#FF9500"/>
<path d="M9.33333 9.59998C8.59697 9.59998 8 10.1969 8 10.9333C8 11.6697 8.59697 12.2666 9.33333 12.2666C10.0697 12.2666 10.6667 11.6697 10.6667 10.9333C10.6658 10.1973 10.0694 9.60084 9.33333 9.59998ZM9.33333 11.7333C8.8915 11.7333 8.53333 11.3751 8.53333 10.9333C8.53333 10.4915 8.8915 10.1333 9.33333 10.1333C9.77517 10.1333 10.1333 10.4915 10.1333 10.9333C10.1329 11.3749 9.77497 11.7328 9.33333 11.7333Z" fill="#FF9500"/>
<path d="M5.33335 9.33331C4.00788 9.33331 2.93335 10.4078 2.93335 11.7333C2.93335 13.0588 4.00788 14.1333 5.33335 14.1333C6.65885 14.1333 7.73335 13.0588 7.73335 11.7333C7.73185 10.4084 6.65822 9.33481 5.33335 9.33331ZM5.33335 13.6C4.30242 13.6 3.46668 12.7642 3.46668 11.7333C3.46668 10.7024 4.30242 9.86665 5.33335 9.86665C6.36428 9.86665 7.20002 10.7024 7.20002 11.7333C7.19882 12.7637 6.36378 13.5988 5.33335 13.6Z" fill="#FF9500"/>
<path d="M8.53334 13.0667C7.94424 13.0667 7.46667 13.5442 7.46667 14.1333C7.46667 14.7224 7.94424 15.2 8.53334 15.2C9.12244 15.2 9.60001 14.7224 9.60001 14.1333C9.59938 13.5445 9.12218 13.0673 8.53334 13.0667ZM8.53334 14.6667C8.23877 14.6667 8.00001 14.4279 8.00001 14.1333C8.00001 13.8388 8.23877 13.6 8.53334 13.6C8.82791 13.6 9.06668 13.8388 9.06668 14.1333C9.06634 14.4277 8.82774 14.6663 8.53334 14.6667Z" fill="#FF9500"/>
<path d="M12.5333 9.06665C11.6497 9.06665 10.9333 9.78298 10.9333 10.6667C10.9333 11.5503 11.6497 12.2667 12.5333 12.2667C13.417 12.2667 14.1333 11.5503 14.1333 10.6667C14.1324 9.78338 13.4166 9.06762 12.5333 9.06665ZM12.5333 11.7333C11.9442 11.7333 11.4667 11.2558 11.4667 10.6667C11.4667 10.0776 11.9442 9.59998 12.5333 9.59998C13.1224 9.59998 13.6 10.0776 13.6 10.6667C13.5994 11.2555 13.1222 11.7327 12.5333 11.7333Z" fill="#FF9500"/>
<path d="M8 0C3.58173 0 0 3.58173 0 8C0 12.4183 3.58173 16 8 16C12.4183 16 16 12.4183 16 8C15.995 3.5838 12.4162 0.005 8 0ZM11.4667 2.13333C11.4667 2.57517 11.1085 2.93333 10.6667 2.93333C10.2248 2.93333 9.86667 2.57517 9.86667 2.13333C9.86667 1.6915 10.2248 1.33333 10.6667 1.33333C11.1083 1.3338 11.4662 1.6917 11.4667 2.13333ZM3.73333 2.4C4.0279 2.4 4.26667 2.63877 4.26667 2.93333C4.26667 3.2279 4.0279 3.46667 3.73333 3.46667C3.43877 3.46667 3.2 3.2279 3.2 2.93333C3.20033 2.63893 3.43893 2.40033 3.73333 2.4ZM8 15.4667C3.87883 15.4692 0.5359 12.1304 0.533333 8.00927C0.5321 6.04583 1.30477 4.16107 2.68383 2.76347C2.67353 2.81957 2.6678 2.87633 2.66667 2.93333C2.66597 3.52243 3.14293 4.00057 3.73203 4.0013C4.32113 4.00203 4.79927 3.52503 4.8 2.93593C4.8007 2.35163 4.33123 1.87553 3.74697 1.86807C5.64087 0.550567 8.03817 0.1845 10.239 0.876733C9.5419 1.11323 9.16857 1.87007 9.4051 2.5671C9.6416 3.26417 10.3984 3.6375 11.0955 3.40097C11.7925 3.16447 12.1659 2.40763 11.9293 1.7106C11.9209 1.68583 11.9118 1.66133 11.902 1.63713C15.4172 3.79103 16.5208 8.38677 14.3668 11.902C13.0095 14.1172 10.598 15.4674 8 15.4667Z" fill="#FF9500"/>
<path d="M2.39998 8.79999C1.95814 8.79999 1.59998 9.15815 1.59998 9.59999C1.59998 10.0418 1.95814 10.4 2.39998 10.4C2.84161 10.3995 3.19951 10.0416 3.19998 9.59999C3.19998 9.15815 2.84181 8.79999 2.39998 8.79999ZM2.39998 9.86665C2.25271 9.86665 2.13331 9.74725 2.13331 9.59999C2.13331 9.45272 2.25271 9.33332 2.39998 9.33332C2.54724 9.33332 2.66664 9.45272 2.66664 9.59999C2.66651 9.74719 2.54718 9.86652 2.39998 9.86665Z" fill="#FF9500"/>
<path d="M5.86666 6.40002C5.13029 6.40002 4.53333 6.99699 4.53333 7.73336C4.53419 8.46939 5.13063 9.06582 5.86666 9.06669C6.60302 9.06669 7.19999 8.46972 7.19999 7.73336C7.19999 6.99699 6.60302 6.40002 5.86666 6.40002ZM5.86666 8.53336C5.42483 8.53336 5.06666 8.17519 5.06666 7.73336C5.06713 7.29172 5.42503 6.93382 5.86666 6.93336C6.30849 6.93336 6.66666 7.29152 6.66666 7.73336C6.66666 8.17519 6.30849 8.53336 5.86666 8.53336Z" fill="#FF9500"/>
<path d="M9.33334 5.86664C8.45007 5.8676 7.7343 6.58337 7.73334 7.46664C7.73334 8.3503 8.44967 9.06664 9.33334 9.06664C10.217 9.06664 10.9333 8.3503 10.9333 7.46664C10.9333 6.58297 10.217 5.86664 9.33334 5.86664ZM9.33334 8.5333C8.74424 8.5333 8.26667 8.05574 8.26667 7.46664C8.26667 6.87754 8.74424 6.39997 9.33334 6.39997C9.92217 6.4006 10.3994 6.8778 10.4 7.46664C10.4 8.05574 9.92244 8.5333 9.33334 8.5333Z" fill="#FF9500"/>
<path d="M13.0667 5.06665C12.0362 5.06785 11.2012 5.90288 11.2 6.93332C11.2 7.96425 12.0357 8.79998 13.0667 8.79998C14.0976 8.79998 14.9333 7.96425 14.9333 6.93332C14.9333 5.90238 14.0976 5.06665 13.0667 5.06665ZM13.0667 8.26665C12.3303 8.26665 11.7333 7.66968 11.7333 6.93332C11.7333 6.19695 12.3303 5.59998 13.0667 5.59998C13.8027 5.60085 14.3991 6.19728 14.4 6.93332C14.4 7.66968 13.803 8.26665 13.0667 8.26665Z" fill="#FF9500"/>
<path d="M12.8 3.20001C12.3584 3.20048 12.0005 3.55838 12 4.00001C12 4.44185 12.3582 4.80001 12.8 4.80001C13.2418 4.80001 13.6 4.44185 13.6 4.00001C13.6 3.55818 13.2418 3.20001 12.8 3.20001ZM12.8 4.26668C12.6527 4.26668 12.5333 4.14728 12.5333 4.00001C12.5333 3.85275 12.6527 3.73335 12.8 3.73335C12.9472 3.73348 13.0665 3.85281 13.0667 4.00001C13.0667 4.14728 12.9473 4.26668 12.8 4.26668Z" fill="#FF9500"/>
</g>
<defs>
<clipPath id="clip0_3090_8666">
<rect width="16" height="16" fill="white"/>
</clipPath>
</defs>
</svg>
