<svg width="16" height="16" viewBox="0 0 16 16" fill="none" xmlns="http://www.w3.org/2000/svg">
<g clip-path="url(#clip0_3090_8618)">
<path d="M3.26401 15.552C3.20001 15.552 3.13601 15.52 3.07201 15.488C2.97601 15.424 2.91201 15.264 2.94401 15.136L4.35201 9.88804L0.128006 6.46404C6.1132e-06 6.40004 -0.0319939 6.24004 6.10761e-06 6.11204C0.0320061 5.98404 0.160006 5.88804 0.288006 5.88804L5.72801 5.60004L7.68001 0.512038C7.74401 0.416038 7.87201 0.320038 8.00001 0.320038C8.12801 0.320038 8.25601 0.416038 8.28801 0.512038L10.24 5.60004L15.68 5.88804C15.808 5.88804 15.936 5.98404 15.968 6.11204C16 6.24004 15.968 6.36804 15.872 6.46404L11.648 9.88804L13.056 15.136C13.088 15.264 13.056 15.392 12.928 15.488C12.832 15.552 12.672 15.584 12.576 15.488L8.00001 12.544L3.42401 15.488C3.36001 15.552 3.32801 15.552 3.26401 15.552Z" fill="#FF9500"/>
</g>
<defs>
<clipPath id="clip0_3090_8618">
<rect width="16" height="16" fill="white"/>
</clipPath>
</defs>
</svg>
