<svg width="17" height="17" viewBox="0 0 17 17" fill="none" xmlns="http://www.w3.org/2000/svg">
<path d="M9.125 5.46875L7.9375 6.65625C8.35938 6.69792 8.72656 6.78906 9.03906 6.92969C9.35677 7.0651 9.6276 7.24219 9.85156 7.46094C10.263 7.8724 10.5365 8.32812 10.6719 8.82812C10.8125 9.32292 10.8125 9.81771 10.6719 10.3125C10.5365 10.8073 10.263 11.2604 9.85156 11.6719L7.38281 14.1328C6.97135 14.5443 6.51823 14.8177 6.02344 14.9531C5.52865 15.0938 5.03385 15.0938 4.53906 14.9531C4.04427 14.8177 3.59115 14.5443 3.17969 14.1328C2.76823 13.7214 2.49219 13.2682 2.35156 12.7734C2.21615 12.2786 2.21615 11.7839 2.35156 11.2891C2.49219 10.7943 2.76562 10.3411 3.17188 9.92969L4.35938 8.74219C4.23958 8.45573 4.15885 8.14583 4.11719 7.8125C4.08073 7.47917 4.09896 7.16146 4.17188 6.85938L2.07812 8.94531C1.46875 9.55469 1.0599 10.2292 0.851562 10.9688C0.648438 11.7083 0.648438 12.4505 0.851562 13.1953C1.05469 13.9349 1.46615 14.612 2.08594 15.2266C2.70052 15.8464 3.3776 16.2578 4.11719 16.4609C4.86198 16.6641 5.60417 16.6615 6.34375 16.4531C7.08333 16.25 7.75781 15.8438 8.36719 15.2344L10.9531 12.6484C11.5625 12.0391 11.9688 11.3646 12.1719 10.625C12.3802 9.88542 12.3802 9.14583 12.1719 8.40625C11.9688 7.66146 11.5599 6.98177 10.9453 6.36719C10.7318 6.15885 10.4766 5.97656 10.1797 5.82031C9.88802 5.66406 9.53646 5.54688 9.125 5.46875ZM8.26562 11.7578L9.44531 10.5703C9.02344 10.5286 8.65365 10.4401 8.33594 10.3047C8.02344 10.1641 7.76042 9.98177 7.54688 9.75781C7.13021 9.34635 6.85156 8.89323 6.71094 8.39844C6.57552 7.90365 6.57552 7.40885 6.71094 6.91406C6.85156 6.41927 7.125 5.96615 7.53125 5.55469L10.0078 3.08594C10.4141 2.67448 10.8646 2.40104 11.3594 2.26562C11.8542 2.13021 12.349 2.13021 12.8438 2.26562C13.3385 2.40104 13.7943 2.67448 14.2109 3.08594C14.6224 3.5026 14.8958 3.96094 15.0312 4.46094C15.1719 4.95573 15.1719 5.45052 15.0312 5.94531C14.8958 6.4349 14.6224 6.88542 14.2109 7.29688L13.0312 8.48438C13.151 8.76562 13.2292 9.07292 13.2656 9.40625C13.3073 9.73958 13.2917 10.0599 13.2188 10.3672L15.3125 8.28125C15.9271 7.66667 16.3359 6.99219 16.5391 6.25781C16.7422 5.51823 16.7396 4.77865 16.5312 4.03906C16.3281 3.29427 15.9193 2.61458 15.3047 2C14.6849 1.38021 14.0052 0.96875 13.2656 0.765625C12.526 0.557292 11.7865 0.557292 11.0469 0.765625C10.3073 0.96875 9.63542 1.3776 9.03125 1.99219L6.4375 4.57812C5.82812 5.1875 5.42188 5.86198 5.21875 6.60156C5.01562 7.34115 5.01302 8.08073 5.21094 8.82031C5.41406 9.5599 5.82552 10.2396 6.44531 10.8594C6.65365 11.0625 6.90625 11.2422 7.20312 11.3984C7.5 11.5547 7.85417 11.6745 8.26562 11.7578Z" fill="#FF9500"/>
</svg>
