<svg width="24" height="24" viewBox="0 0 24 24" fill="none" xmlns="http://www.w3.org/2000/svg">
<g opacity="0.5">
<path d="M19.8761 5.97336C19.7907 5.65318 19.6172 5.31202 19.4888 5.01333C17.9531 1.32266 14.5976 0 11.8883 0C8.26126 0 4.26654 2.43206 3.73322 7.44511V8.46931C3.73322 8.51205 3.74795 8.896 3.76887 9.08807C4.06784 11.4772 5.95302 14.0162 7.36094 16.4053C8.87567 18.965 10.4474 21.483 12.0046 23.9999C12.9648 22.3574 13.9215 20.6933 14.8598 19.0934C15.1156 18.6238 15.4124 18.1545 15.6684 17.7064C15.8391 17.4079 16.165 17.1095 16.314 16.8319C17.8286 14.0587 20.2667 11.2641 20.2667 8.51199V7.38139C20.2667 7.08303 19.8969 6.03769 19.8761 5.97336ZM11.9547 11.1148C10.8885 11.1148 9.72153 10.5817 9.14551 9.10944C9.05969 8.87508 9.06661 8.40542 9.06661 8.3624V7.70107C9.06661 5.8242 10.6602 4.9707 12.0466 4.9707C13.7534 4.9707 15.0734 6.33622 15.0734 8.043C15.0734 9.74973 13.6614 11.1148 11.9547 11.1148Z" fill="white"/>
</g>
</svg>
