<svg width="16" height="16" viewBox="0 0 16 16" fill="none" xmlns="http://www.w3.org/2000/svg">
<path d="M12.5084 5.48747C12.4647 5.39359 12.3706 5.33334 12.2669 5.33334H9.10685L12.2255 0.409344C12.2775 0.327219 12.2807 0.223219 12.2338 0.138156C12.1869 0.0528125 12.0972 0 12.0002 0H7.73351C7.63245 0 7.54017 0.0570625 7.49485 0.147469L3.49485 8.14747C3.45351 8.22987 3.45804 8.328 3.50657 8.40666C3.55539 8.48531 3.64098 8.53331 3.73351 8.53331H6.47564L3.48764 15.6298C3.4367 15.7512 3.48204 15.892 3.59429 15.9608C3.63748 15.9872 3.68548 16 3.73323 16C3.80976 16 3.88523 15.9672 3.93751 15.9053L12.4709 5.77197C12.5378 5.69253 12.5522 5.58159 12.5084 5.48747Z" fill="#FF9500"/>
</svg>
