<svg width="16" height="16" viewBox="0 0 16 16" fill="none" xmlns="http://www.w3.org/2000/svg">
<path d="M13.3341 7.20002C13.3035 4.88028 11.416 2.93335 9.08906 2.93335C7.60666 2.93335 6.21466 3.73468 5.44613 4.88962C5.10853 4.66482 4.70293 4.53335 4.26666 4.53335C3.08853 4.53335 2.13333 5.48855 2.13333 6.66668C2.13333 6.70748 2.13706 6.74722 2.13946 6.78775C2.1368 6.83628 2.13333 6.88535 2.13333 6.93335C1.06986 7.44322 0.266663 8.65522 0.266663 9.90802C0.266663 11.6453 1.688 13.0667 3.42533 13.0667H9.96053C9.99733 13.0667 10.0331 13.0624 10.0693 13.0611C10.1059 13.0624 10.1416 13.0667 10.1784 13.0667H12.7925C14.4099 13.0667 15.7333 11.7432 15.7333 10.1259C15.7333 8.69362 14.6949 7.45628 13.3341 7.20002Z" fill="#FF9500"/>
<path d="M13.3341 7.1999C13.3341 7.1999 12.6581 7.0999 12 7.1999H13.3341Z" fill="#FF9500"/>
<path d="M5.90784 8.21649H6.58053C6.5708 7.61517 6.08452 7.20001 5.34537 7.20001C4.61758 7.20001 4.08429 7.60858 4.08753 8.22143C4.08591 8.71896 4.43117 9.00397 4.99201 9.1407L5.35348 9.23296C5.71495 9.32192 5.91594 9.42736 5.91756 9.65471C5.91594 9.90182 5.68577 10.0699 5.32917 10.0699C4.96446 10.0699 4.70186 9.89853 4.67917 9.5608H4C4.01783 10.2906 4.53167 10.6679 5.33727 10.6679C6.14774 10.6679 6.62429 10.2741 6.62591 9.65635C6.62429 9.09458 6.20771 8.79639 5.63066 8.66459L5.33241 8.5921C5.04388 8.52456 4.80236 8.41583 4.80722 8.17365C4.80722 7.95619 4.99687 7.79639 5.34051 7.79639C5.67605 7.79639 5.8819 7.95125 5.90784 8.21649Z" fill="white"/>
<path d="M10.0671 8.93313C10.0671 7.82934 9.39279 7.20001 8.51262 7.20001C7.62759 7.20001 6.95815 7.82934 6.95815 8.93313C6.95815 10.032 7.62759 10.6662 8.51262 10.6662C9.39279 10.6662 10.0671 10.0369 10.0671 8.93313ZM9.35551 8.93313C9.35551 9.64812 9.02159 10.0353 8.51262 10.0353C8.00203 10.0353 7.66973 9.64812 7.66973 8.93313C7.66973 8.21813 8.00203 7.83098 8.51262 7.83098C9.02159 7.83098 9.35551 8.21813 9.35551 8.93313Z" fill="white"/>
<path d="M10.4163 11.2H12V10.7882H11.1328V10.77L11.4213 10.5526C11.8055 10.2923 11.9773 10.0797 11.9773 9.7898C11.9773 9.43065 11.6661 9.15059 11.183 9.15059C10.713 9.15059 10.3758 9.4043 10.3758 9.82769H10.854C10.854 9.64812 10.9821 9.54927 11.1766 9.54927C11.3581 9.54927 11.504 9.63823 11.504 9.79639C11.504 9.94795 11.3873 10.0452 11.2057 10.1951L10.4163 10.8359V11.2Z" fill="white"/>
<path d="M2.13336 6.66666C2.13336 5.48853 3.08856 4.53333 4.2667 4.53333C5.44483 4.53333 6.40003 5.48853 6.40003 6.66666" fill="#FF9500"/>
</svg>
