<svg width="24" height="24" viewBox="0 0 24 24" fill="none" xmlns="http://www.w3.org/2000/svg">
<g opacity="0.5">
<path d="M0.26352 2.48585C0.439282 2.31013 0.648076 2.22198 0.88849 2.22198H15.111C15.3517 2.22198 15.5601 2.31013 15.7359 2.48585C15.9118 2.6618 15.9998 2.87026 15.9998 3.11096V5.7777H18.2221C18.4722 5.7777 18.7431 5.83788 19.0348 5.95823C19.3265 6.07878 19.5602 6.22666 19.7361 6.40262L22.4862 9.15269C22.6065 9.27304 22.7106 9.41183 22.7987 9.56935C22.8866 9.72648 22.9515 9.86804 22.9932 9.99282C23.0347 10.1179 23.065 10.289 23.0833 10.5068C23.1017 10.7245 23.1135 10.8842 23.1181 10.9862C23.1226 11.0879 23.1226 11.2639 23.1181 11.514C23.1135 11.7641 23.1111 11.926 23.1111 12.0002V16.4446C23.3518 16.4446 23.5601 16.5325 23.7361 16.7087C23.912 16.8842 24 17.0928 24 17.3335C24 17.4722 23.9816 17.5951 23.9445 17.7014C23.9074 17.8079 23.845 17.8935 23.7569 17.9584C23.669 18.0234 23.5925 18.0765 23.5278 18.1183C23.4628 18.1598 23.3541 18.1875 23.2013 18.2015C23.0486 18.2155 22.9445 18.2248 22.8889 18.2295C22.8332 18.2338 22.7153 18.2338 22.5347 18.2295C22.354 18.2248 22.2499 18.2225 22.2221 18.2225H21.3333C21.3333 19.2037 20.986 20.0417 20.2917 20.7362C19.5971 21.4306 18.7592 21.7779 17.7777 21.7779C16.7962 21.7779 15.9582 21.4306 15.2639 20.7362C14.5693 20.0418 14.2223 19.2037 14.2223 18.2225H8.88875C8.88875 19.2037 8.54146 20.0417 7.84712 20.7362C7.15288 21.4306 6.31483 21.7779 5.33328 21.7779C4.35153 21.7779 3.51402 21.4306 2.81944 20.7362C2.1249 20.0418 1.77781 19.2037 1.77781 18.2225C1.75018 18.2225 1.64593 18.2248 1.46549 18.2295C1.28487 18.2338 1.1668 18.2338 1.11124 18.2295C1.05559 18.2248 0.951244 18.2155 0.798589 18.2015C0.645886 18.1875 0.537209 18.1599 0.472266 18.1183C0.407322 18.0766 0.33114 18.0234 0.243186 17.9584C0.155134 17.8935 0.0925262 17.8079 0.055603 17.7014C0.0181447 17.595 -8.99432e-07 17.4722 -8.99432e-07 17.3335V3.11111C-0.000195488 2.87035 0.0877094 2.66214 0.26352 2.48585ZM16.528 19.4724C16.8796 19.8242 17.2964 20.0005 17.7779 20.0005C18.2594 20.0005 18.6761 19.8244 19.028 19.4724C19.3798 19.1208 19.5557 18.704 19.5557 18.2226C19.5557 17.7411 19.3796 17.324 19.028 16.9723C18.6762 16.6207 18.2594 16.4445 17.7779 16.4445C17.2964 16.4445 16.8797 16.6205 16.528 16.9723C16.1759 17.324 16 17.7411 16 18.2226C16 18.704 16.1759 19.1208 16.528 19.4724ZM16 11.1111H21.3335V10.6946C21.3335 10.5742 21.2919 10.4723 21.2085 10.389L18.5002 7.68068C18.4169 7.5973 18.3149 7.55575 18.1945 7.55575H16V11.1111ZM4.08339 19.4724C4.43511 19.8242 4.85187 20.0005 5.33328 20.0005C5.81488 20.0005 6.23179 19.8244 6.58351 19.4724C6.93528 19.1208 7.11128 18.704 7.11128 18.2226C7.11128 17.7411 6.93533 17.324 6.58351 16.9723C6.23179 16.6207 5.81488 16.4445 5.33328 16.4445C4.85187 16.4445 4.43511 16.6205 4.08339 16.9723C3.73162 17.3242 3.55547 17.7411 3.55547 18.2226C3.55547 18.704 3.73128 19.1208 4.08339 19.4724Z" fill="white"/>
</g>
</svg>
