<svg width="24" height="24" viewBox="0 0 24 24" fill="none" xmlns="http://www.w3.org/2000/svg">
<g opacity="0.5" clip-path="url(#clip0_3090_8815)">
<path d="M23.1428 6.00001H18.8571V0.857159C18.8571 0.383755 18.4734 0 18 0H0.857159C0.383755 0 0 0.383755 0 0.857159V20.5714C0 22.465 1.53502 24 3.42859 24H20.5714C22.465 24 24 22.465 24 20.5714V6.85712C24 6.38377 23.6162 6.00001 23.1428 6.00001ZM6.85712 4.28569H12C12.4734 4.28569 12.8571 4.66945 12.8571 5.14285C12.8571 5.61626 12.4734 6.00001 12 6.00001H6.85712C6.38372 6.00001 5.99996 5.61626 5.99996 5.14285C5.99996 4.66945 6.38377 4.28569 6.85712 4.28569ZM14.5714 20.5714H4.28569C3.81229 20.5714 3.42854 20.1877 3.42854 19.7143C3.42854 19.2409 3.81229 18.8571 4.28569 18.8571H14.5714C15.0448 18.8571 15.4286 19.2409 15.4286 19.7143C15.4286 20.1877 15.0448 20.5714 14.5714 20.5714ZM14.5714 17.1428H4.28569C3.81229 17.1428 3.42854 16.7591 3.42854 16.2857C3.42854 15.8123 3.81229 15.4285 4.28569 15.4285H14.5714C15.0448 15.4285 15.4286 15.8123 15.4286 16.2857C15.4286 16.7591 15.0448 17.1428 14.5714 17.1428ZM14.5714 13.7143H4.28569C3.81229 13.7143 3.42854 13.3305 3.42854 12.8571C3.42854 12.3837 3.81229 12 4.28569 12H14.5714C15.0448 12 15.4286 12.3837 15.4286 12.8571C15.4286 13.3305 15.0448 13.7143 14.5714 13.7143ZM14.5714 10.2857H4.28569C3.81229 10.2857 3.42854 9.90195 3.42854 9.42855C3.42854 8.95514 3.81229 8.57139 4.28569 8.57139H14.5714C15.0448 8.57139 15.4286 8.95514 15.4286 9.42855C15.4286 9.90195 15.0448 10.2857 14.5714 10.2857ZM22.2857 20.5714C22.2857 21.5182 21.5182 22.2857 20.5714 22.2857C19.6247 22.2857 18.8571 21.5182 18.8571 20.5714V7.71428H22.2857V20.5714H22.2857Z" fill="white"/>
</g>
<defs>
<clipPath id="clip0_3090_8815">
<rect width="24" height="24" fill="white"/>
</clipPath>
</defs>
</svg>
