<svg width="16" height="16" viewBox="0 0 16 16" fill="none" xmlns="http://www.w3.org/2000/svg">
<path d="M12.6518 9.90296C12.3238 9.56341 11.9281 9.38186 11.5088 9.38186C11.0928 9.38186 10.6937 9.56005 10.3522 9.8996L9.28351 10.9586C9.19558 10.9115 9.10765 10.8678 9.02311 10.8241C8.90136 10.7636 8.78638 10.7065 8.68831 10.6459C7.68729 10.0139 6.77757 9.19024 5.90506 8.12451C5.48233 7.59333 5.19826 7.1462 4.99197 6.69234C5.26928 6.4402 5.5263 6.17797 5.77655 5.92583C5.87124 5.8317 5.96593 5.7342 6.06063 5.64007C6.77081 4.93407 6.77081 4.01963 6.06063 3.31363L5.13739 2.39583C5.03255 2.29161 4.92433 2.18403 4.82288 2.07645C4.61997 1.86802 4.40691 1.65285 4.18709 1.45114C3.85905 1.1284 3.46676 0.95694 3.05418 0.95694C2.6416 0.95694 2.24254 1.1284 1.90436 1.45114C1.90098 1.4545 1.90098 1.4545 1.89759 1.45786L0.747773 2.611C0.314898 3.04132 0.068025 3.56578 0.0139157 4.17428C-0.0672482 5.15595 0.223589 6.07039 0.44679 6.66881C0.994646 8.13796 1.81305 9.49953 3.03389 10.9586C4.51513 12.7169 6.29735 14.1053 8.33321 15.0836C9.11103 15.4501 10.1493 15.8838 11.3092 15.9577C11.3802 15.9611 11.4546 15.9645 11.5223 15.9645C12.3035 15.9645 12.9596 15.6854 13.4736 15.1307C13.477 15.124 13.4837 15.1206 13.4871 15.1139C13.663 14.9021 13.8659 14.7105 14.0789 14.5054C14.2244 14.3676 14.3732 14.223 14.5186 14.0717C14.8534 13.7254 15.0292 13.322 15.0292 12.9085C15.0292 12.4916 14.85 12.0916 14.5084 11.7554L12.6518 9.90296ZM13.8625 13.443C13.8591 13.443 13.8591 13.4464 13.8625 13.443C13.7306 13.5842 13.5953 13.712 13.4499 13.8532C13.2301 14.0616 13.0069 14.2802 12.7972 14.5256C12.4557 14.8887 12.0532 15.0601 11.5257 15.0601C11.4749 15.0601 11.4208 15.0601 11.3701 15.0568C10.3657 14.9929 9.43231 14.6029 8.73227 14.2701C6.81815 13.3489 5.13739 12.0411 3.74069 10.3837C2.58749 9.00197 1.81643 7.72445 1.30577 6.35279C0.991264 5.51568 0.876282 4.86347 0.927009 4.24824C0.960828 3.8549 1.11301 3.52879 1.3937 3.24976L2.54691 2.10335C2.71262 1.9487 2.88847 1.86465 3.06094 1.86465C3.274 1.86465 3.44647 1.99241 3.55469 2.09999C3.55807 2.10335 3.56145 2.10671 3.56484 2.11007C3.77113 2.3017 3.96727 2.50005 4.17356 2.71185C4.2784 2.81943 4.38662 2.92701 4.49484 3.03796L5.41808 3.95576C5.77655 4.31212 5.77655 4.64158 5.41808 4.99795C5.32 5.09544 5.22531 5.19293 5.12724 5.28707C4.84317 5.57619 4.57262 5.84514 4.2784 6.10737C4.27164 6.1141 4.26487 6.11746 4.26149 6.12418C3.97066 6.41331 4.02476 6.6957 4.08564 6.88733C4.08902 6.89742 4.0924 6.9075 4.09578 6.91759C4.33589 7.49584 4.67408 8.04047 5.18811 8.68931L5.1915 8.69267C6.12488 9.83572 7.10899 10.7266 8.19456 11.4091C8.33321 11.4965 8.47525 11.5671 8.61052 11.6343C8.73227 11.6949 8.84725 11.752 8.94532 11.8125C8.95885 11.8192 8.97238 11.8293 8.98591 11.8361C9.10089 11.8932 9.20911 11.9201 9.32071 11.9201C9.6014 11.9201 9.77726 11.7453 9.83475 11.6881L10.9913 10.5384C11.1063 10.4241 11.2889 10.2862 11.502 10.2862C11.7117 10.2862 11.8841 10.4173 11.989 10.5316C11.9924 10.535 11.9924 10.535 11.9957 10.5384L13.8591 12.3908C14.2075 12.7337 14.2075 13.0867 13.8625 13.443Z" fill="#FF9500"/>
<path d="M8.64771 3.8246C9.53376 3.97252 10.3386 4.3894 10.9812 5.02816C11.6237 5.66692 12.0397 6.46705 12.1919 7.34787C12.2291 7.56975 12.4219 7.7244 12.6417 7.7244C12.6687 7.7244 12.6924 7.72104 12.7195 7.71768C12.9697 7.67733 13.1354 7.442 13.0948 7.19322C12.9122 6.1275 12.4049 5.15591 11.6305 4.38603C10.8561 3.61616 9.8787 3.11187 8.80666 2.93033C8.5564 2.88999 8.32305 3.05472 8.27909 3.30014C8.23512 3.54556 8.39745 3.78425 8.64771 3.8246Z" fill="#FF9500"/>
<path d="M15.993 7.06213C15.6921 5.30721 14.8601 3.71031 13.5818 2.43951C12.3035 1.16871 10.6971 0.341682 8.93178 0.0424723C8.68491 -0.00123246 8.45156 0.166863 8.4076 0.412282C8.36702 0.661062 8.53273 0.893034 8.78298 0.936738C10.3589 1.20233 11.7962 1.94531 12.9392 3.07827C14.0823 4.21459 14.8263 5.6434 15.0935 7.21005C15.1307 7.43193 15.3234 7.58658 15.5433 7.58658C15.5703 7.58658 15.594 7.58322 15.621 7.57986C15.8679 7.54288 16.037 7.30754 15.993 7.06213Z" fill="#FF9500"/>
</svg>
