<svg width="256" height="32" viewBox="0 0 256 32" fill="none" xmlns="http://www.w3.org/2000/svg">
<path d="M48.3013 27.8274V13.7718C49.4621 13.651 51.0994 13.5907 53.2255 13.5907C54.9484 13.5907 56.1397 13.9006 56.7995 14.5205C57.4593 15.1403 57.7913 16.2975 57.7954 17.9921C57.7954 19.6887 57.4716 20.8419 56.8362 21.4637C56.2008 22.0856 55.0522 22.3875 53.4088 22.3875C52.3106 22.3877 51.2132 22.3272 50.1219 22.2064V27.8274H48.3013ZM50.1341 20.8419H53.1888C54.2519 20.8419 54.9789 20.6245 55.3699 20.2381C55.7609 19.8517 55.9809 19.103 55.9809 17.9921C55.9809 16.8812 55.7792 16.1265 55.3699 15.728C54.9606 15.3295 54.2519 15.1242 53.2011 15.1242C51.7103 15.1242 50.6901 15.1242 50.1463 15.1242L50.1341 20.8419Z" fill="url(#paint0_linear_3537_1946)"/>
<path d="M61.229 21.7597H63.6055C65.0963 21.7597 66.1145 21.9831 66.6603 22.4298C67.2285 22.8766 67.5095 23.6857 67.5095 24.8449C67.5095 26.0041 67.2346 26.8373 66.6847 27.2599C66.1349 27.6826 65.1879 27.9241 63.8499 27.9241C62.0171 27.9241 60.6119 27.8818 59.5733 27.8033H59.5122V17.9077H61.229V21.7597ZM61.229 26.5898H63.6055C64.1912 26.643 64.7793 26.5187 65.2918 26.2335C65.4726 26.0434 65.6082 25.8156 65.6885 25.567C65.7689 25.3184 65.7919 25.0552 65.7561 24.7966C65.7844 24.5485 65.7587 24.2974 65.6807 24.06C65.6027 23.8226 65.4743 23.6044 65.304 23.42C64.7928 23.1192 64.1976 22.988 63.6055 23.0457H61.229V26.5898ZM71.1752 17.9077V27.8275H69.3912V17.9077H71.1752Z" fill="url(#paint1_linear_3537_1946)"/>
<path d="M82.3612 17.9077V27.8275H80.6261V23.2449H75.3292V27.8516H73.6185V17.9077H75.3536V21.8985H80.6505V17.9077H82.3612Z" fill="url(#paint2_linear_3537_1946)"/>
<path d="M89.0817 17.6661C90.8046 17.6661 92.0264 18.0585 92.7474 18.8434C93.4683 19.6343 93.8226 20.9747 93.8226 22.8765C93.8226 24.7784 93.4683 26.1248 92.7474 26.9097C92.0264 27.6946 90.8107 28.1172 89.0817 28.1172C87.3527 28.1172 86.1186 27.7248 85.416 26.9097C84.7134 26.0946 84.3408 24.7784 84.3408 22.8765C84.3408 20.9747 84.6951 19.6343 85.416 18.8434C86.1369 18.0525 87.3466 17.6661 89.0817 17.6661ZM89.0817 19.1332C87.9637 19.1332 87.2 19.3928 86.7845 19.9241C86.3691 20.4555 86.1736 21.4396 86.1736 22.8765C86.1736 24.3135 86.3813 25.2916 86.7845 25.8289C87.1878 26.3663 87.9637 26.6259 89.0817 26.6259C90.1997 26.6259 90.9451 26.3603 91.3544 25.8289C91.7637 25.2976 91.9654 24.3135 91.9654 22.8765C91.9654 21.4396 91.7576 20.4615 91.3544 19.9241C90.9512 19.3868 90.1875 19.1332 89.0817 19.1332Z" fill="url(#paint3_linear_3537_1946)"/>
<path d="M100.397 22.6412V22.7015C100.734 22.719 101.066 22.7799 101.387 22.8827C101.688 22.9861 101.963 23.153 102.193 23.3717C102.413 23.5737 102.617 23.7917 102.804 24.0238C103.033 24.3379 103.225 24.6761 103.379 25.0321C103.605 25.497 103.776 25.9015 103.91 26.2396L104.521 27.8275H102.688C102.456 27.2237 102.291 26.8132 102.193 26.5717C102.096 26.3301 101.955 26.0041 101.772 25.5875C101.649 25.2892 101.5 25.0023 101.326 24.7302C101.216 24.5792 101.069 24.386 100.88 24.1264C100.74 23.93 100.556 23.7687 100.342 23.6555C100.171 23.583 99.9694 23.5106 99.7312 23.4321C99.4776 23.3568 99.2139 23.3201 98.9491 23.3234H97.4462C97.4924 23.6396 97.5209 23.9581 97.5317 24.2774V27.8033H95.7722V17.9077H97.5317V20.8601C97.5284 21.2426 97.4936 21.6242 97.4279 22.0012H98.8331C99.2534 22.0104 99.6706 21.928 100.055 21.7597C100.442 21.5582 100.767 21.258 100.996 20.8902C101.261 20.5083 101.492 20.1043 101.686 19.6827C101.869 19.2842 102.102 18.6986 102.389 17.9077H104.222C104.057 18.3544 103.934 18.6744 103.861 18.8556C103.788 19.0367 103.678 19.3084 103.531 19.6586C103.434 19.9135 103.32 20.1616 103.189 20.4012C103.104 20.5461 102.994 20.7453 102.859 21.005C102.761 21.2041 102.636 21.389 102.487 21.5544L102.071 21.9529C101.931 22.0933 101.768 22.2096 101.588 22.297C101.41 22.3786 101.227 22.4473 101.039 22.5023C100.829 22.5645 100.614 22.6109 100.397 22.6412Z" fill="url(#paint4_linear_3537_1946)"/>
<path d="M116.422 13.7719V27.8275H114.589V21.0835H108.028V27.8275H106.195V13.7719H108.028V19.5378H114.602V13.7719H116.422Z" fill="url(#paint5_linear_3537_1946)"/>
<path d="M125.104 23.7097H120.412C120.509 24.8509 120.79 25.6176 121.261 26.0161C121.94 26.4741 122.757 26.6873 123.576 26.6199C124.752 26.6198 125.925 26.5391 127.089 26.3784L127.26 27.5376C126.004 27.9625 124.677 28.1489 123.35 28.087C121.609 28.087 120.381 27.6885 119.648 26.8795C118.915 26.0705 118.554 24.7361 118.554 22.8343C118.554 20.9324 118.909 19.58 119.63 18.8132C120.351 18.0464 121.524 17.6661 123.161 17.6661C124.664 17.6661 125.764 17.9317 126.448 18.4691C126.801 18.7635 127.08 19.1348 127.264 19.5538C127.447 19.9729 127.53 20.4282 127.505 20.8841C127.505 22.7679 126.704 23.7097 125.104 23.7097ZM120.393 22.3694H124.67C125.415 22.3694 125.776 21.8803 125.745 20.9022C125.771 20.6473 125.734 20.3899 125.637 20.1522C125.541 19.9146 125.387 19.7037 125.189 19.5377C124.603 19.2158 123.933 19.0749 123.265 19.1332C122.202 19.1332 121.462 19.3627 121.053 19.8215C120.644 20.2804 120.406 21.1317 120.393 22.3694Z" fill="url(#paint6_linear_3537_1946)"/>
<path d="M135.985 13.5847V17.6963C137.96 17.7728 139.369 18.2135 140.212 19.0185C141.056 19.8235 141.477 21.1136 141.477 22.8886C141.477 24.6516 141.056 25.9075 140.212 26.7346C139.369 27.5618 137.97 27.9784 135.997 28.0629V31.933H134.366V28.075C132.394 27.9904 130.987 27.5477 130.144 26.7467C129.301 25.9497 128.886 24.6637 128.886 22.9007C128.886 21.1377 129.301 19.8336 130.144 19.0306C130.987 18.2276 132.392 17.7929 134.366 17.7084V13.5847H135.985ZM134.415 26.5957V19.1332C132.981 19.1976 131.981 19.5056 131.415 20.057C130.849 20.6084 130.566 21.5483 130.566 22.8766C130.566 24.1928 130.849 25.1226 131.415 25.6659C131.981 26.2093 132.981 26.5152 134.415 26.5837V26.5957ZM135.936 19.1332V26.5837C137.353 26.5173 138.38 26.2093 138.911 25.6659C139.443 25.1226 139.76 24.1928 139.76 22.8766C139.76 21.5604 139.479 20.6245 138.911 20.0691C138.343 19.5136 137.341 19.1997 135.936 19.1332Z" fill="url(#paint7_linear_3537_1946)"/>
<path d="M151.124 19.3325H147.458V27.8275H145.711V19.3325H142.045V17.9077H151.106L151.124 19.3325Z" fill="url(#paint8_linear_3537_1946)"/>
<path d="M158.382 23.7097H153.683C153.781 24.8509 154.062 25.6176 154.533 26.0161C155.211 26.4741 156.029 26.6873 156.848 26.6199C158.025 26.6198 159.201 26.5391 160.367 26.3784L160.532 27.5376C159.275 27.9625 157.949 28.1489 156.622 28.087C154.887 28.087 153.653 27.6845 152.92 26.8795C152.187 26.0745 151.82 24.7261 151.82 22.8343C151.82 20.9204 152.174 19.58 152.895 18.8132C153.616 18.0464 154.789 17.6661 156.433 17.6661C157.936 17.6661 159.031 17.9337 159.72 18.4691C160.072 18.7638 160.35 19.1353 160.533 19.5544C160.715 19.9735 160.796 20.4287 160.77 20.8841C160.776 22.7739 159.982 23.7097 158.382 23.7097ZM153.653 22.3694H157.929C158.675 22.3694 159.035 21.8803 159.005 20.9022C159.031 20.6473 158.994 20.3899 158.897 20.1522C158.8 19.9146 158.646 19.7037 158.449 19.5377C157.863 19.2158 157.192 19.0749 156.524 19.1332C155.461 19.1332 154.728 19.3627 154.313 19.8215C153.897 20.2804 153.653 21.1317 153.653 22.3694Z" fill="url(#paint9_linear_3537_1946)"/>
<path d="M171.261 17.9077V27.8275H169.538V19.3144H164.369V27.8275H162.652V17.9077H171.261Z" fill="url(#paint10_linear_3537_1946)"/>
<path d="M175.152 17.9076L175.299 19.4955C175.852 18.9251 176.515 18.4694 177.248 18.1551C177.947 17.8405 178.704 17.6739 179.472 17.6661C179.991 17.6282 180.511 17.7286 180.977 17.9569C181.444 18.1853 181.839 18.5331 182.123 18.9642C182.673 19.8336 182.948 21.1558 182.948 22.9188C182.948 24.7905 182.645 26.1168 182.038 26.8976C181.685 27.3075 181.238 27.6281 180.734 27.8329C180.23 28.0377 179.685 28.1207 179.142 28.075C177.829 28.0862 176.54 27.7326 175.421 27.0546C175.477 27.7192 175.492 28.3867 175.464 29.0531V31.927H173.723V17.9076H175.152ZM175.464 20.697V25.9497C176.508 26.291 177.592 26.494 178.69 26.5535C179.045 26.5921 179.404 26.5433 179.736 26.4117C180.067 26.28 180.361 26.0695 180.59 25.7988C180.95 25.2976 181.127 24.3316 181.127 22.9067C181.205 21.9102 181.031 20.9102 180.62 19.9966C180.441 19.7158 180.188 19.489 179.887 19.341C179.586 19.193 179.251 19.1295 178.916 19.1574C177.993 19.1695 176.869 19.6827 175.464 20.697Z" fill="url(#paint11_linear_3537_1946)"/>
<path d="M189.216 17.6661C190.939 17.6661 192.154 18.0585 192.882 18.8434C193.609 19.6283 193.975 20.9747 193.975 22.8765C193.975 24.7784 193.615 26.1248 192.9 26.9097C192.185 27.6946 190.963 28.1172 189.234 28.1172C187.505 28.1172 186.265 27.7248 185.568 26.9097C184.872 26.0946 184.493 24.7784 184.493 22.8765C184.493 20.9747 184.854 19.6343 185.568 18.8434C186.283 18.0525 187.475 17.6661 189.216 17.6661ZM189.216 19.1332C188.098 19.1332 187.334 19.3928 186.919 19.9241C186.503 20.4555 186.308 21.4396 186.308 22.8765C186.308 24.3135 186.515 25.2916 186.919 25.8289C187.322 26.3663 188.098 26.6259 189.216 26.6259C190.334 26.6259 191.049 26.3603 191.489 25.8289C191.928 25.2976 192.099 24.3135 192.099 22.8765C192.099 21.4396 191.898 20.4615 191.489 19.9241C191.079 19.3868 190.309 19.1332 189.216 19.1332Z" fill="url(#paint12_linear_3537_1946)"/>
<path d="M205.364 26.4388V30.7557H204.209L204.062 27.8275H195.912L195.747 30.7557H194.587V26.4388H195.747C196.661 24.4741 197.174 22.3506 197.256 20.1899C197.366 18.6684 198.22 17.9077 199.816 17.9077H203.952V26.4388H205.364ZM202.309 26.4388V19.2722H200.14C199.974 19.2561 199.806 19.2759 199.648 19.3303C199.49 19.3847 199.346 19.4724 199.225 19.5872C199.105 19.7021 199.012 19.8413 198.951 19.9954C198.891 20.1495 198.865 20.3147 198.875 20.4797C198.805 22.5511 198.29 24.5842 197.366 26.4449L202.309 26.4388Z" fill="url(#paint13_linear_3537_1946)"/>
<path d="M215.682 17.9077L211.693 28.377C211.334 29.4938 210.675 30.4935 209.787 31.269C208.907 31.9211 207.661 32.1324 206.041 31.9211L206.213 30.7135C207.055 30.8259 207.912 30.6671 208.656 30.2607C209.314 29.7385 209.802 29.0375 210.062 28.2441L210.245 27.8215H209.854C209.71 27.833 209.567 27.7939 209.449 27.711C209.332 27.6281 209.248 27.5069 209.212 27.3687L205.547 17.9017H207.416L210.086 25.2917C210.239 25.7446 210.361 26.143 210.459 26.4993H210.746C210.844 26.2276 210.984 25.8291 211.161 25.2917L213.807 17.9017L215.682 17.9077Z" fill="url(#paint14_linear_3537_1946)"/>
<path d="M221.535 22.6412V22.7015C221.874 22.7195 222.208 22.7804 222.531 22.8827C222.832 22.9875 223.107 23.1542 223.337 23.3717C223.556 23.575 223.76 23.7929 223.948 24.0238C224.179 24.3453 224.371 24.6917 224.523 25.0562C224.743 25.5211 224.92 25.9256 225.048 26.2637C225.176 26.6018 225.384 27.1271 225.659 27.8516H223.826C223.588 27.2479 223.423 26.8373 223.331 26.5958C223.24 26.3543 223.093 26.0283 222.904 25.6117C222.784 25.3122 222.634 25.0251 222.458 24.7543L222.018 24.1506C221.877 23.9555 221.693 23.7945 221.48 23.6796C221.303 23.6072 221.101 23.5347 220.869 23.4562C220.614 23.3809 220.348 23.3442 220.081 23.3476H218.597C218.643 23.6638 218.671 23.9822 218.682 24.3015V27.8275H216.923V17.9077H218.682V20.8601C218.679 21.2426 218.644 21.6242 218.578 22.0012H219.983C220.404 22.011 220.821 21.9285 221.205 21.7597C221.593 21.56 221.918 21.2593 222.146 20.8902C222.413 20.5084 222.646 20.1043 222.843 19.6827C223.02 19.2842 223.252 18.6986 223.545 17.9077H225.378C225.213 18.3544 225.091 18.6744 225.011 18.8556C224.932 19.0367 224.828 19.3084 224.682 19.6586C224.587 19.9145 224.473 20.1628 224.339 20.4012L224.009 21.005C223.914 21.2054 223.788 21.3905 223.637 21.5544L223.227 21.9529C223.085 22.0933 222.92 22.2096 222.739 22.297C222.561 22.3786 222.377 22.4473 222.189 22.5023C221.975 22.5657 221.756 22.6121 221.535 22.6412Z" fill="url(#paint15_linear_3537_1946)"/>
<path d="M235.141 19.3325H231.506V27.8275H229.747V19.3325H226.081V17.9077H235.135L235.141 19.3325Z" fill="url(#paint16_linear_3537_1946)"/>
<path d="M240.603 17.6661C242.326 17.6661 243.548 18.0585 244.269 18.8434C244.984 19.6343 245.344 20.9747 245.344 22.8765C245.344 24.7784 244.984 26.1248 244.269 26.9097C243.554 27.6946 242.332 28.1172 240.603 28.1172C238.874 28.1172 237.64 27.7248 236.937 26.9097C236.235 26.0946 235.862 24.7784 235.862 22.8765C235.862 20.9747 236.223 19.6343 236.937 18.8434C237.652 18.0525 238.868 17.6661 240.603 17.6661ZM240.603 19.1332C239.485 19.1332 238.721 19.3928 238.306 19.9241C237.891 20.4555 237.695 21.4396 237.695 22.8765C237.695 24.3135 237.897 25.2916 238.306 25.8289C238.715 26.3663 239.485 26.6259 240.603 26.6259C241.721 26.6259 242.467 26.3603 242.876 25.8289C243.285 25.2976 243.487 24.3135 243.487 22.8765C243.487 21.4396 243.279 20.4615 242.876 19.9241C242.473 19.3868 241.703 19.1332 240.603 19.1332Z" fill="url(#paint17_linear_3537_1946)"/>
<path d="M253.462 22.6955V22.7558C254.185 22.7468 254.882 23.0127 255.411 23.4985C255.831 24.0351 256.036 24.7058 255.986 25.3822C256.03 25.7712 255.968 26.1648 255.807 26.5224C255.646 26.88 255.391 27.1887 255.069 27.4169C254.471 27.7872 253.426 27.9704 251.935 27.9663C249.98 27.9663 248.43 27.9261 247.286 27.8456V17.9318C248.288 17.8473 249.656 17.805 251.379 17.805C252.98 17.805 254.086 17.9922 254.697 18.3544C255.308 18.7167 255.619 19.4231 255.619 20.4555C255.662 21.037 255.476 21.6122 255.1 22.0615C254.654 22.4693 254.07 22.6958 253.462 22.6955ZM248.954 22.0917H251.605C252.233 22.1377 252.863 22.0299 253.438 21.7778C253.625 21.6402 253.772 21.4558 253.863 21.2436C253.955 21.0314 253.987 20.7989 253.957 20.5702C253.983 20.3479 253.943 20.123 253.842 19.9227C253.741 19.7223 253.584 19.5551 253.389 19.4412C252.732 19.2006 252.03 19.0998 251.33 19.1453C250.377 19.1453 249.583 19.1453 248.948 19.1453L248.954 22.0917ZM248.954 23.3355V26.5716H250.176H251.685C252.359 26.6232 253.037 26.5113 253.658 26.2456C253.856 26.1034 254.011 25.9112 254.108 25.6892C254.205 25.4672 254.239 25.2235 254.208 24.9837C254.234 24.7353 254.194 24.4843 254.093 24.2556C253.991 24.0269 253.831 23.8284 253.627 23.6796C252.988 23.3865 252.283 23.2617 251.581 23.3173L248.954 23.3355Z" fill="url(#paint18_linear_3537_1946)"/>
<mask id="mask0_3537_1946" style="mask-type:alpha" maskUnits="userSpaceOnUse" x="0" y="0" width="40" height="32">
<path d="M0.714806 31.7459C0.525228 31.7459 0.343414 31.6714 0.209362 31.539C0.0753097 31.4065 0 31.2268 0 31.0395V8.06024L20.039 0L38.0436 8.08439V10.4693C38.0436 10.6582 37.9676 10.8394 37.8324 10.973C37.6972 11.1066 37.5139 11.1817 37.3227 11.1817C37.1315 11.1817 36.9481 11.1066 36.8129 10.973C36.6777 10.8394 36.6017 10.6582 36.6017 10.4693V8.99607L20.0085 1.5396L1.43572 9.01418V31.0395C1.43573 31.1327 1.41704 31.2251 1.38073 31.3112C1.34443 31.3973 1.29123 31.4754 1.2242 31.5411C1.15718 31.6068 1.07766 31.6587 0.990227 31.6938C0.902797 31.729 0.809189 31.7467 0.714806 31.7459Z" fill="url(#paint19_linear_3537_1946)"/>
<path d="M23.7722 13.8322H10.5819C9.23044 13.8326 7.93428 14.3624 6.97729 15.3054C6.50334 15.7679 6.127 16.3188 5.87006 16.9261C5.61312 17.5335 5.4807 18.1851 5.48047 18.8434C5.49174 20.1737 6.03398 21.4458 6.98929 22.3831C7.94459 23.3204 9.23571 23.8471 10.5819 23.8486H23.7722C24.4533 23.872 25.1322 23.7596 25.7685 23.5181C26.4047 23.2766 26.9852 22.911 27.4754 22.4431C27.9656 21.9752 28.3555 21.4145 28.6217 20.7945C28.888 20.1745 29.0252 19.5079 29.0252 18.8343C29.0252 18.1608 28.888 17.4942 28.6217 16.8742C28.3555 16.2542 27.9656 15.6935 27.4754 15.2256C26.9852 14.7577 26.4047 14.3921 25.7685 14.1506C25.1322 13.9091 24.4533 13.7967 23.7722 13.8201V13.8322ZM17.8888 20.7392C17.6151 20.8953 17.2969 20.9578 16.9836 20.917C16.6703 20.8762 16.3794 20.7344 16.1559 20.5136C15.9325 20.2928 15.789 20.0053 15.7477 19.6957C15.7064 19.386 15.7697 19.0716 15.9276 18.8011L17.0884 16.8087C17.0977 16.7937 17.1107 16.7814 17.1262 16.7728C17.1418 16.7642 17.1592 16.7597 17.177 16.7597C17.1948 16.7597 17.2123 16.7642 17.2278 16.7728C17.2433 16.7814 17.2563 16.7937 17.2656 16.8087L18.4203 18.8011C18.5143 18.9629 18.5751 19.1413 18.5993 19.3263C18.6235 19.5112 18.6105 19.6991 18.5611 19.8791C18.5117 20.0591 18.427 20.2277 18.3116 20.3753C18.1962 20.5229 18.0525 20.6465 17.8888 20.7392Z" fill="url(#paint20_linear_3537_1946)"/>
<path d="M8.57062 27.7852V27.8274H5.86414V24.3195H11.4909C10.6717 24.4702 9.93147 24.899 9.39822 25.5318C8.86497 26.1646 8.57224 26.9616 8.57062 27.7852Z" fill="url(#paint21_linear_3537_1946)"/>
<path d="M16.1907 27.7852V27.8274H15.7142V27.7852C15.7123 26.9608 15.4187 26.163 14.8843 25.5301C14.3498 24.8972 13.6081 24.4689 12.7878 24.3195H19.1355C18.3118 24.4651 17.5659 24.8918 17.0277 25.5251C16.4896 26.1584 16.1934 26.9582 16.1907 27.7852Z" fill="url(#paint22_linear_3537_1946)"/>
<path d="M29.3934 24.3195V27.8274H23.3695V27.7852C23.3687 26.9642 23.0785 26.1692 22.5489 25.5368C22.0193 24.9043 21.2833 24.4739 20.4675 24.3195H29.3934Z" fill="url(#paint23_linear_3537_1946)"/>
<path d="M38.7406 24.3195V19.0487L36.138 16.0299H29.4176V27.8033H30.3707V27.761C30.4088 26.8487 30.8024 25.9863 31.469 25.3542C32.1357 24.722 33.0239 24.3691 33.9478 24.3691C34.8717 24.3691 35.7598 24.722 36.4265 25.3542C37.0931 25.9863 37.4867 26.8487 37.5248 27.761V27.8033H39.6509V24.3195H38.7406ZM36.9078 21.3007H31.171V17.7627H35.2582L36.9017 19.3747L36.9078 21.3007Z" fill="url(#paint24_linear_3537_1946)"/>
<path d="M12.1519 24.5309C11.5011 24.5333 10.8656 24.7262 10.3257 25.0852C9.7858 25.4442 9.36563 25.9533 9.11827 26.5482C8.8709 27.143 8.80743 27.7969 8.93587 28.4274C9.0643 29.0579 9.37889 29.6366 9.83991 30.0905C10.3009 30.5444 10.8877 30.8532 11.5261 30.9778C12.1646 31.1024 12.8261 31.0372 13.4271 30.7906C14.0281 30.5439 14.5417 30.1268 14.903 29.5919C15.2643 29.057 15.4571 28.4283 15.4571 27.7852C15.4563 27.357 15.3702 26.9332 15.2036 26.538C15.0371 26.1427 14.7934 25.7837 14.4865 25.4815C14.1796 25.1794 13.8154 24.9399 13.4149 24.7768C13.0143 24.6136 12.5851 24.5301 12.1519 24.5309ZM12.1519 29.4214C11.8249 29.419 11.506 29.321 11.2354 29.1398C10.9647 28.9585 10.7544 28.7022 10.631 28.403C10.5075 28.1038 10.4765 27.7752 10.5417 27.4586C10.607 27.142 10.7656 26.8516 10.9977 26.624C11.2297 26.3964 11.5247 26.2417 11.8456 26.1796C12.1664 26.1174 12.4987 26.1505 12.8005 26.2747C13.1023 26.3989 13.3602 26.6086 13.5416 26.8774C13.7229 27.1462 13.8197 27.4621 13.8198 27.7852C13.8198 28.0011 13.7765 28.2148 13.6926 28.4141C13.6086 28.6134 13.4855 28.7943 13.3305 28.9464C13.1755 29.0985 12.9915 29.2188 12.7892 29.3003C12.5869 29.3818 12.3703 29.423 12.1519 29.4214Z" fill="url(#paint25_linear_3537_1946)"/>
<path d="M19.7886 24.5309C19.1378 24.5333 18.5024 24.7262 17.9624 25.0852C17.4225 25.4442 17.0024 25.9533 16.755 26.5482C16.5076 27.143 16.4441 27.7969 16.5726 28.4274C16.701 29.0579 17.0156 29.6366 17.4766 30.0905C17.9376 30.5444 18.5244 30.8532 19.1629 30.9778C19.8013 31.1024 20.4628 31.0372 21.0638 30.7906C21.6648 30.5439 22.1784 30.1268 22.5397 29.5919C22.901 29.057 23.0938 28.4283 23.0938 27.7852C23.093 27.357 23.0069 26.9332 22.8403 26.538C22.6738 26.1427 22.4301 25.7837 22.1232 25.4815C21.8163 25.1794 21.4521 24.9399 21.0516 24.7768C20.651 24.6136 20.2218 24.5301 19.7886 24.5309ZM19.7886 29.4214C19.4614 29.4202 19.1419 29.3232 18.8704 29.1427C18.599 28.9622 18.3877 28.7062 18.2633 28.4071C18.1389 28.1081 18.107 27.7793 18.1716 27.4623C18.2362 27.1453 18.3943 26.8543 18.6261 26.6261C18.8579 26.3979 19.1529 26.2426 19.4739 26.18C19.7949 26.1173 20.1275 26.1501 20.4297 26.2741C20.7319 26.3981 20.9901 26.6078 21.1718 26.8768C21.3534 27.1457 21.4504 27.4618 21.4504 27.7852C21.4504 28.0005 21.4073 28.2138 21.3238 28.4127C21.2402 28.6116 21.1177 28.7923 20.9633 28.9443C20.8089 29.0963 20.6256 29.2167 20.4241 29.2986C20.2225 29.3804 20.0065 29.4222 19.7886 29.4214Z" fill="url(#paint26_linear_3537_1946)"/>
<path d="M33.9071 24.5309C33.2564 24.5333 32.6209 24.7261 32.081 25.0852C31.541 25.4442 31.1209 25.9533 30.8735 26.5481C30.6261 27.143 30.5627 27.7969 30.6911 28.4274C30.8196 29.0579 31.1341 29.6366 31.5952 30.0905C32.0562 30.5444 32.6429 30.8532 33.2814 30.9778C33.9198 31.1024 34.5813 31.0372 35.1823 30.7906C35.7833 30.5439 36.2969 30.1268 36.6582 29.5919C37.0195 29.057 37.2123 28.4283 37.2123 27.7852C37.2123 27.3568 37.1268 26.9326 36.9605 26.537C36.7943 26.1414 36.5506 25.7821 36.2435 25.4798C35.9364 25.1774 35.572 24.9379 35.171 24.7751C34.7701 24.6123 34.3406 24.5293 33.9071 24.5309ZM33.9071 29.4214C33.5802 29.419 33.2613 29.321 32.9906 29.1398C32.72 28.9585 32.5097 28.7022 32.3862 28.403C32.2628 28.1038 32.2317 27.7752 32.297 27.4586C32.3623 27.142 32.5209 26.8516 32.7529 26.624C32.9849 26.3964 33.28 26.2417 33.6008 26.1796C33.9216 26.1174 34.2539 26.1505 34.5557 26.2747C34.8575 26.3989 35.1154 26.6086 35.2968 26.8774C35.4782 27.1462 35.575 27.4621 35.575 27.7852C35.575 28.001 35.5318 28.2148 35.4478 28.4141C35.3638 28.6134 35.2408 28.7943 35.0858 28.9464C34.9307 29.0985 34.7468 29.2188 34.5445 29.3003C34.3422 29.3818 34.1256 29.423 33.9071 29.4214Z" fill="url(#paint27_linear_3537_1946)"/>
<path d="M24.114 12.3469H19.2509V13.0895H24.114V12.3469Z" fill="url(#paint28_linear_3537_1946)"/>
<path d="M23.4479 13.0895H19.9227V13.8322H23.4479V13.0895Z" fill="url(#paint29_linear_3537_1946)"/>
</mask>
<g mask="url(#mask0_3537_1946)">
<rect y="-9.7807" width="39.5294" height="41.9422" fill="url(#paint30_linear_3537_1946)"/>
</g>
<defs>
<linearGradient id="paint0_linear_3537_1946" x1="-13.6002" y1="585.765" x2="4055.99" y2="529.022" gradientUnits="userSpaceOnUse">
<stop/>
<stop offset="1" stop-color="#DF8744"/>
</linearGradient>
<linearGradient id="paint1_linear_3537_1946" x1="-16.5303" y1="420.468" x2="4980.74" y2="298.809" gradientUnits="userSpaceOnUse">
<stop/>
<stop offset="1" stop-color="#DF8744"/>
</linearGradient>
<linearGradient id="paint2_linear_3537_1946" x1="16.6166" y1="417.556" x2="3763.56" y2="348.679" gradientUnits="userSpaceOnUse">
<stop/>
<stop offset="1" stop-color="#DF8744"/>
</linearGradient>
<linearGradient id="paint3_linear_3537_1946" x1="22.5189" y1="437.697" x2="4086.2" y2="360.613" gradientUnits="userSpaceOnUse">
<stop/>
<stop offset="1" stop-color="#DF8744"/>
</linearGradient>
<linearGradient id="paint4_linear_3537_1946" x1="38.7304" y1="416.586" x2="3788.28" y2="347.444" gradientUnits="userSpaceOnUse">
<stop/>
<stop offset="1" stop-color="#DF8744"/>
</linearGradient>
<linearGradient id="paint5_linear_3537_1946" x1="39.5135" y1="578.667" x2="4423.19" y2="511.976" gradientUnits="userSpaceOnUse">
<stop/>
<stop offset="1" stop-color="#DF8744"/>
</linearGradient>
<linearGradient id="paint6_linear_3537_1946" x1="60.1701" y1="436.949" x2="3898.04" y2="368.074" gradientUnits="userSpaceOnUse">
<stop/>
<stop offset="1" stop-color="#DF8744"/>
</linearGradient>
<linearGradient id="paint7_linear_3537_1946" x1="46.7884" y1="751.005" x2="5444.04" y2="673.563" gradientUnits="userSpaceOnUse">
<stop/>
<stop offset="1" stop-color="#DF8744"/>
</linearGradient>
<linearGradient id="paint8_linear_3537_1946" x1="82.8524" y1="416.586" x2="3973.7" y2="342.133" gradientUnits="userSpaceOnUse">
<stop/>
<stop offset="1" stop-color="#DF8744"/>
</linearGradient>
<linearGradient id="paint9_linear_3537_1946" x1="93.4329" y1="436.949" x2="3931.48" y2="368.067" gradientUnits="userSpaceOnUse">
<stop/>
<stop offset="1" stop-color="#DF8744"/>
</linearGradient>
<linearGradient id="paint10_linear_3537_1946" x1="106.527" y1="416.586" x2="3795.89" y2="349.647" gradientUnits="userSpaceOnUse">
<stop/>
<stop offset="1" stop-color="#DF8744"/>
</linearGradient>
<linearGradient id="paint11_linear_3537_1946" x1="113.574" y1="591.117" x2="4067.98" y2="537.662" gradientUnits="userSpaceOnUse">
<stop/>
<stop offset="1" stop-color="#DF8744"/>
</linearGradient>
<linearGradient id="paint12_linear_3537_1946" x1="122.671" y1="437.697" x2="4186.35" y2="360.613" gradientUnits="userSpaceOnUse">
<stop/>
<stop offset="1" stop-color="#DF8744"/>
</linearGradient>
<linearGradient id="paint13_linear_3537_1946" x1="124.32" y1="534.272" x2="4743.33" y2="453.264" gradientUnits="userSpaceOnUse">
<stop/>
<stop offset="1" stop-color="#DF8744"/>
</linearGradient>
<linearGradient id="paint14_linear_3537_1946" x1="139.463" y1="584.514" x2="4483.89" y2="519.211" gradientUnits="userSpaceOnUse">
<stop/>
<stop offset="1" stop-color="#DF8744"/>
</linearGradient>
<linearGradient id="paint15_linear_3537_1946" x1="159.96" y1="417.556" x2="3904.29" y2="348.775" gradientUnits="userSpaceOnUse">
<stop/>
<stop offset="1" stop-color="#DF8744"/>
</linearGradient>
<linearGradient id="paint16_linear_3537_1946" x1="167.007" y1="416.586" x2="4050.01" y2="342.433" gradientUnits="userSpaceOnUse">
<stop/>
<stop offset="1" stop-color="#DF8744"/>
</linearGradient>
<linearGradient id="paint17_linear_3537_1946" x1="174.04" y1="437.697" x2="4237.72" y2="360.613" gradientUnits="userSpaceOnUse">
<stop/>
<stop offset="1" stop-color="#DF8744"/>
</linearGradient>
<linearGradient id="paint18_linear_3537_1946" x1="190.473" y1="426.192" x2="3925.02" y2="359.234" gradientUnits="userSpaceOnUse">
<stop/>
<stop offset="1" stop-color="#DF8744"/>
</linearGradient>
<linearGradient id="paint19_linear_3537_1946" x1="-4.47212" y1="16.1808" x2="257.352" y2="10.6417" gradientUnits="userSpaceOnUse">
<stop stop-color="#DE9C4D"/>
<stop offset="1" stop-color="#DF8744"/>
</linearGradient>
<linearGradient id="paint20_linear_3537_1946" x1="-152.74" y1="329.403" x2="9918.49" y2="-164.617" gradientUnits="userSpaceOnUse">
<stop stop-color="#DE9C4D"/>
<stop offset="1" stop-color="#DF8744"/>
</linearGradient>
<linearGradient id="paint21_linear_3537_1946" x1="-30.5413" y1="175.438" x2="2379.23" y2="94.6235" gradientUnits="userSpaceOnUse">
<stop stop-color="#DE9C4D"/>
<stop offset="1" stop-color="#DF8744"/>
</linearGradient>
<linearGradient id="paint22_linear_3537_1946" x1="-28.282" y1="176.315" x2="2689.53" y2="73.4971" gradientUnits="userSpaceOnUse">
<stop stop-color="#DE9C4D"/>
<stop offset="1" stop-color="#DF8744"/>
</linearGradient>
<linearGradient id="paint23_linear_3537_1946" x1="-37.194" y1="177.543" x2="3779.15" y2="-25.4743" gradientUnits="userSpaceOnUse">
<stop stop-color="#DE9C4D"/>
<stop offset="1" stop-color="#DF8744"/>
</linearGradient>
<linearGradient id="paint24_linear_3537_1946" x1="-38.1224" y1="453.646" x2="4348.15" y2="373.941" gradientUnits="userSpaceOnUse">
<stop stop-color="#DE9C4D"/>
<stop offset="1" stop-color="#DF8744"/>
</linearGradient>
<linearGradient id="paint25_linear_3537_1946" x1="-33.3451" y1="324.445" x2="2789.25" y2="264.733" gradientUnits="userSpaceOnUse">
<stop stop-color="#DE9C4D"/>
<stop offset="1" stop-color="#DF8744"/>
</linearGradient>
<linearGradient id="paint26_linear_3537_1946" x1="-25.7084" y1="326.137" x2="2796.95" y2="266.425" gradientUnits="userSpaceOnUse">
<stop stop-color="#DE9C4D"/>
<stop offset="1" stop-color="#DF8744"/>
</linearGradient>
<linearGradient id="paint27_linear_3537_1946" x1="-11.524" y1="329.262" x2="2811.14" y2="269.55" gradientUnits="userSpaceOnUse">
<stop stop-color="#DE9C4D"/>
<stop offset="1" stop-color="#DF8744"/>
</linearGradient>
<linearGradient id="paint28_linear_3537_1946" x1="-14.4506" y1="28.2837" x2="2032.34" y2="-251.933" gradientUnits="userSpaceOnUse">
<stop stop-color="#DE9C4D"/>
<stop offset="1" stop-color="#DF8744"/>
</linearGradient>
<linearGradient id="paint29_linear_3537_1946" x1="-4.40088" y1="29.9398" x2="1492.33" y2="-118.595" gradientUnits="userSpaceOnUse">
<stop stop-color="#DE9C4D"/>
<stop offset="1" stop-color="#DF8744"/>
</linearGradient>
<linearGradient id="paint30_linear_3537_1946" x1="-1.84074e-08" y1="11.1903" x2="39.5294" y2="11.1903" gradientUnits="userSpaceOnUse">
<stop stop-color="#F86F10"/>
<stop offset="1" stop-color="#FEAE00"/>
</linearGradient>
</defs>
</svg>
