<svg width="32" height="32" viewBox="0 0 32 32" fill="none" xmlns="http://www.w3.org/2000/svg">
<path d="M16 32C18.1985 32 20.2632 31.5812 22.1941 30.7437C24.125 29.9062 25.8233 28.7546 27.289 27.289C28.7663 25.8233 29.9178 24.125 30.7437 22.1941C31.5812 20.2632 32 18.1985 32 16C32 13.8015 31.5812 11.7368 30.7437 9.80589C29.9178 7.87495 28.7721 6.17666 27.3064 4.71101C25.8408 3.24537 24.1367 2.09378 22.1941 1.25627C20.2632 0.418757 18.1985 0 16 0C13.8015 0 11.7368 0.418757 9.80589 1.25627C7.87495 2.09378 6.17085 3.24537 4.69357 4.71101C3.22792 6.17666 2.07634 7.87495 1.23882 9.80589C0.412941 11.7368 0 13.8015 0 16C0 18.1985 0.418757 20.2632 1.25627 22.1941C2.09378 24.125 3.24537 25.8233 4.71101 27.289C6.17666 28.7546 7.87495 29.9062 9.80589 30.7437C11.7368 31.5812 13.8015 32 16 32ZM16 31.0229C13.9295 31.0229 11.9869 30.6332 10.1723 29.8539C8.35769 29.0745 6.75827 27.9985 5.37405 26.626C4.00145 25.2417 2.92548 23.6423 2.14613 21.8277C1.36678 20.0131 0.977099 18.0705 0.977099 16C0.977099 13.9178 1.36678 11.9753 2.14613 10.1723C2.92548 8.35769 4.00145 6.76409 5.37405 5.39149C6.75827 4.00727 8.35769 2.92548 10.1723 2.14613C11.9869 1.35514 13.9295 0.959651 16 0.959651C18.0705 0.959651 20.0131 1.35514 21.8277 2.14613C23.6539 2.92548 25.2534 4.00727 26.626 5.39149C27.9985 6.76409 29.0745 8.35769 29.8539 10.1723C30.6449 11.9753 31.0403 13.9178 31.0403 16C31.0403 18.0705 30.6449 20.0131 29.8539 21.8277C29.0745 23.6423 27.9985 25.2417 26.626 26.626C25.2534 27.9985 23.6598 29.0745 21.8451 29.8539C20.0305 30.6332 18.0822 31.0229 16 31.0229ZM8.14831 24.4624H23.8691C24.0669 24.4624 24.1948 24.4158 24.253 24.3228C24.3228 24.2181 24.3577 24.0727 24.3577 23.8866C24.3577 23.4329 24.189 22.8281 23.8517 22.072C23.5144 21.3159 23.0025 20.554 22.3162 19.7863C21.63 19.0185 20.7634 18.373 19.7165 17.8495C18.6696 17.3261 17.4366 17.0643 16.0174 17.0643C14.5867 17.0643 13.3479 17.3261 12.301 17.8495C11.2541 18.373 10.3817 19.0185 9.68375 19.7863C8.99746 20.554 8.48564 21.3159 8.14831 22.072C7.81098 22.8281 7.64231 23.4329 7.64231 23.8866C7.64231 24.0727 7.67721 24.2181 7.747 24.3228C7.82843 24.4158 7.9622 24.4624 8.14831 24.4624ZM16.0174 15.7383C16.7852 15.7383 17.4831 15.5405 18.1112 15.145C18.7394 14.7495 19.2337 14.2145 19.5943 13.5398C19.9666 12.8535 20.1527 12.0742 20.1527 11.2017C20.1527 10.3875 19.9666 9.64304 19.5943 8.96838C19.2337 8.29371 18.7394 7.75863 18.1112 7.36314C17.4831 6.95602 16.7852 6.75245 16.0174 6.75245C15.2381 6.75245 14.5344 6.95602 13.9062 7.36314C13.2781 7.75863 12.7779 8.29371 12.4057 8.96838C12.0334 9.64304 11.8473 10.3875 11.8473 11.2017C11.8473 12.5045 12.2486 13.5863 13.0513 14.4471C13.8655 15.2963 14.8542 15.7266 16.0174 15.7383Z" fill="#FF9500"/>
</svg>
