<svg width="22" height="22" viewBox="0 0 22 22" fill="none" xmlns="http://www.w3.org/2000/svg">
<path d="M11 10.6906L6.81287 8.06562V11.2235L11 13.8484L21.0231 6.46196C20.6686 5.68014 20.2246 4.9471 19.7048 4.27521L11 10.6906Z" fill="white"/>
<path d="M22 11C22 10.3274 21.9396 9.66859 21.8238 9.02945L19.4558 10.7743C19.458 10.8493 19.4587 10.9243 19.4587 11C19.4587 15.664 15.664 19.4587 11 19.4587C6.33605 19.4587 2.54126 15.664 2.54126 11C2.54126 6.33605 6.33605 2.54126 11 2.54126C12.7675 2.54126 14.4104 3.08649 15.7688 4.01754L17.9082 2.4408C16.0199 0.915029 13.617 0 11 0C4.92456 0 0 4.92456 0 11C0 17.0754 4.92456 22 11 22C17.0754 22 22 17.0754 22 11Z" fill="white"/>
</svg>
