<svg width="16" height="16" viewBox="0 0 16 16" fill="none" xmlns="http://www.w3.org/2000/svg">
<g clip-path="url(#clip0_3537_1984)">
<path d="M14.0468 1.91187H1.95655C0.877302 1.91187 0 2.78917 0 3.86841V12.1316C0 13.2109 0.877302 14.0882 1.95655 14.0882H14.0435C15.1227 14.0882 16 13.2109 16 12.1316V3.87172C16.0033 2.79248 15.126 1.91187 14.0468 1.91187ZM15.1095 12.1316C15.1095 12.7176 14.6327 13.1943 14.0468 13.1943H1.95655C1.37058 13.1943 0.893855 12.7176 0.893855 12.1316V3.87172C0.893855 3.28575 1.37058 2.80903 1.95655 2.80903H14.0435C14.6294 2.80903 15.1061 3.28575 15.1061 3.87172V12.1316H15.1095Z" fill="#FF9500"/>
<path d="M10.0906 7.89743L14.0037 4.38822C14.1858 4.22269 14.2024 3.94129 14.0368 3.7559C13.8713 3.57382 13.5899 3.55726 13.4045 3.72279L8.00828 8.56616L6.95552 7.62596C6.95221 7.62265 6.9489 7.61934 6.9489 7.61603C6.92572 7.59285 6.90255 7.57299 6.87606 7.55313L2.59218 3.71948C2.40679 3.55395 2.12539 3.57051 1.95986 3.7559C1.79433 3.94129 1.81089 4.22269 1.99628 4.38822L5.95572 7.92722L2.01283 11.6185C1.83406 11.7873 1.82413 12.0687 1.99297 12.2508C2.08235 12.3435 2.20153 12.3932 2.32071 12.3932C2.42996 12.3932 2.53921 12.3535 2.62529 12.274L6.62777 8.52975L7.71364 9.49974C7.79971 9.57589 7.90565 9.6123 8.01159 9.6123C8.11753 9.6123 8.22678 9.57258 8.30954 9.49643L9.4252 8.49664L13.4045 12.2773C13.4906 12.3601 13.6031 12.3998 13.7124 12.3998C13.8316 12.3998 13.9474 12.3535 14.0368 12.2608C14.2057 12.082 14.1991 11.7973 14.0203 11.6284L10.0906 7.89743Z" fill="#FF9500"/>
</g>
<defs>
<clipPath id="clip0_3537_1984">
<rect width="16" height="16" fill="white"/>
</clipPath>
</defs>
</svg>
