<svg width="13" height="7" viewBox="0 0 13 7" fill="none" xmlns="http://www.w3.org/2000/svg">
<path d="M6.42383 6.91992C6.54688 6.91992 6.66309 6.89714 6.77246 6.85156C6.88184 6.80143 6.9821 6.72624 7.07324 6.62598L11.9678 1.62891C12.1273 1.4694 12.207 1.27799 12.207 1.05469C12.207 0.89974 12.1683 0.760742 12.0908 0.637695C12.0179 0.510091 11.9199 0.409831 11.7969 0.336914C11.6738 0.263997 11.5348 0.227539 11.3799 0.227539C11.1566 0.227539 10.9583 0.311849 10.7852 0.480469L6.12305 5.26562H6.73145L2.0625 0.480469C1.89388 0.311849 1.69564 0.227539 1.46777 0.227539C1.31283 0.227539 1.17383 0.263997 1.05078 0.336914C0.927734 0.409831 0.829753 0.510091 0.756836 0.637695C0.683919 0.760742 0.647461 0.89974 0.647461 1.05469C0.647461 1.16862 0.667969 1.27344 0.708984 1.36914C0.75 1.46029 0.809245 1.54688 0.886719 1.62891L5.77441 6.63281C5.97038 6.82422 6.18685 6.91992 6.42383 6.91992Z" fill="black"/>
</svg>
